<?xml version="1.0" standalone="no"?>
<!DOCTYPE svg PUBLIC "-//W3C//DTD SVG 20010904//EN"
 "http://www.w3.org/TR/2001/REC-SVG-20010904/DTD/svg10.dtd">
<svg version="1.0" xmlns="http://www.w3.org/2000/svg"
 width="5000.000000pt" height="5000.000000pt" viewBox="0 0 5000.000000 5000.000000"
 preserveAspectRatio="xMidYMid meet">
<metadata>
Created by potrace 1.15, written by Peter Selinger 2001-2017
</metadata>
<g transform="translate(0.000000,5000.000000) scale(0.100000,-0.100000)"
fill="#000000" stroke="none">
<path d="M19820 34690 l0 -5120 190 0 190 0 0 2125 0 2125 1185 0 1185 0 0
-9605 0 -9605 -150 0 -150 0 0 -4442 c0 -4211 1 -4442 18 -4422 9 12 29 37 45
56 l27 35 0 4342 0 4341 150 0 150 0 0 9683 0 9682 -69 87 -70 86 69 53 69 54
1 1013 0 1012 1680 0 1680 0 0 -802 0 -803 45 46 46 45 -26 238 c-14 130 -25
242 -25 247 0 5 11 9 25 9 l25 0 0 540 0 540 -1770 0 -1770 0 0 -840 0 -840
-1185 0 -1185 0 0 2620 0 2620 -190 0 -190 0 0 -5120z"/>
<path d="M28690 39528 l0 -281 23 20 c80 71 207 173 216 173 5 0 34 -29 63
-65 29 -36 59 -65 66 -65 9 0 12 57 12 250 l0 250 -190 0 -190 0 0 -282z"/>
<path d="M34212 39140 c-134 -26 -246 -50 -249 -54 -4 -3 9 -22 27 -41 l34
-35 -62 0 c-58 0 -62 -2 -62 -22 0 -58 50 -661 55 -666 7 -7 672 42 681 50 7
8 -41 667 -50 675 -3 3 -64 2 -136 -3 l-130 -9 58 60 c56 58 89 96 81 94 -2 0
-113 -22 -247 -49z"/>
<path d="M32890 38941 c-61 -6 -74 -12 -217 -104 l-152 -98 56 -87 c30 -48 87
-136 126 -197 39 -60 76 -116 83 -124 10 -11 47 9 218 119 113 73 206 136 206
141 0 9 -196 315 -218 342 -8 9 -20 16 -26 15 -6 0 -40 -4 -76 -7z"/>
<path d="M31439 38738 c-6 -24 -12 -56 -13 -72 -1 -27 3 -30 64 -47 36 -9 66
-16 68 -14 2 1 9 25 16 51 7 27 16 59 20 70 6 19 0 23 -58 38 -36 9 -70 16
-75 16 -6 0 -15 -19 -22 -42z"/>
<path d="M29307 37893 c-26 -223 -44 -409 -40 -413 9 -7 822 -104 827 -99 5 6
98 820 94 824 -4 4 -777 95 -808 95 l-25 0 -48 -407z"/>
<path d="M31089 37782 c-151 -115 -274 -213 -274 -220 0 -6 94 -135 208 -286
l208 -276 64 48 c162 119 495 374 495 378 0 4 -403 539 -419 557 -4 4 -131
-86 -282 -201z"/>
<path d="M28716 37885 l-26 -65 0 -344 0 -343 40 -27 c44 -29 60 -27 60 6 0
18 4 20 38 14 20 -3 42 -6 48 -6 15 0 -2 -81 -19 -92 -7 -4 -1 -11 16 -19 26
-12 30 -10 76 35 l48 47 36 -43 36 -43 1 351 0 351 -57 39 c-31 21 -61 42 -66
46 -7 4 0 20 17 42 l27 36 -24 9 c-81 31 -201 71 -212 71 -7 0 -25 -29 -39
-65z"/>
<path d="M34656 37779 c-160 -77 -292 -141 -294 -144 -3 -2 38 -93 91 -202 52
-109 94 -199 92 -201 -1 -2 -124 43 -273 98 l-270 102 -113 143 c-63 79 -118
144 -124 145 -8 0 -621 -484 -658 -519 -4 -4 85 -123 199 -265 205 -256 206
-258 187 -279 -10 -12 -55 -63 -101 -113 l-82 -92 77 -75 c43 -41 92 -87 110
-101 l32 -27 74 78 74 77 71 -42 c40 -24 76 -52 82 -63 9 -16 6 -22 -19 -37
-17 -9 -31 -21 -30 -27 0 -5 83 -167 184 -360 l183 -350 -201 -85 c-111 -48
-210 -89 -220 -93 -16 -6 -17 -2 -11 44 8 61 1 69 -73 69 -44 0 -50 3 -47 18
3 11 -89 128 -291 367 -163 193 -301 350 -306 350 -5 0 -168 -135 -363 -300
-320 -270 -353 -301 -342 -317 7 -10 34 -42 59 -71 25 -28 155 -181 288 -339
133 -159 245 -288 249 -288 4 0 69 53 146 118 76 64 210 178 298 251 l159 134
-5 -65 -4 -66 110 -9 111 -8 84 -200 c46 -110 85 -201 87 -203 3 -4 477 197
486 206 3 4 -29 90 -73 192 -43 102 -79 194 -79 205 0 15 28 35 120 83 65 34
129 62 142 62 13 -1 127 -56 253 -125 127 -68 233 -120 237 -117 11 11 408
759 408 768 0 5 -159 93 -353 196 l-352 188 -45 85 c-24 47 -46 85 -47 85 -1
0 -50 -25 -108 -56 l-106 -56 16 38 c8 22 59 158 114 303 l98 264 24 -51 c13
-29 27 -52 30 -52 4 0 49 20 100 45 52 24 97 41 100 37 4 -4 23 -128 43 -276
20 -148 38 -271 40 -273 4 -5 733 94 744 101 7 4 -85 734 -93 744 -2 2 -85 -8
-186 -22 -101 -14 -184 -24 -185 -23 -1 1 -56 117 -124 257 -67 140 -125 260
-128 267 -5 7 -103 -35 -296 -128z"/>
<path d="M36058 37423 c-76 -19 -138 -40 -138 -47 0 -17 193 -800 199 -808 7
-8 202 39 215 52 5 6 5 15 -2 23 -6 7 -16 44 -21 82 -6 37 -15 73 -21 79 -6 6
-37 11 -68 11 -57 0 -57 0 -60 32 -2 20 10 66 33 120 45 112 50 144 31 218
-10 36 -16 101 -16 167 0 59 -3 108 -7 107 -5 0 -70 -17 -145 -36z"/>
<path d="M32260 37354 c-60 -36 -104 -69 -102 -76 2 -7 17 -35 33 -62 17 -26
28 -50 26 -52 -2 -2 -29 -14 -60 -27 l-55 -22 118 -293 c65 -160 117 -292 115
-292 -2 0 -54 65 -116 145 -62 80 -116 145 -121 145 -5 0 -99 -70 -209 -156
-139 -108 -197 -159 -191 -167 5 -7 76 -97 157 -202 81 -104 151 -191 155
-193 5 -2 91 61 192 140 166 129 188 144 223 143 l39 0 20 -70 c11 -38 20 -71
21 -72 1 -2 167 43 301 82 l51 15 -25 89 c-14 49 -23 95 -20 102 3 8 77 43
164 78 88 36 161 66 163 68 4 2 -287 723 -296 733 -2 2 -85 -29 -184 -69 -99
-40 -183 -70 -187 -66 -4 3 -25 36 -47 73 -23 36 -45 67 -50 68 -6 1 -57 -27
-115 -62z"/>
<path d="M29023 36420 c-50 -47 -64 -49 -92 -14 -26 33 -32 29 -101 -76 -29
-44 -55 -80 -59 -80 -3 0 -23 11 -44 25 l-37 26 0 -36 c0 -20 11 -58 25 -85
l25 -49 88 57 c80 52 149 124 214 225 6 9 10 8 18 -3 7 -11 10 -7 10 18 0 17
-1 32 -2 32 -2 0 -22 -18 -45 -40z"/>
<path d="M22758 35191 c-2 -495 -1 -909 2 -920 4 -17 22 -5 129 80 68 54 125
99 127 99 7 0 379 -472 382 -484 3 -12 -463 -396 -480 -396 -3 0 -39 41 -78
90 -40 50 -74 89 -76 87 -5 -5 -5 -5469 0 -5475 5 -4 487 356 498 372 4 6 8 8
10 6 10 -14 395 -530 415 -557 l25 -32 -279 -207 c-153 -114 -285 -209 -295
-212 -13 -3 -62 57 -197 239 l-181 243 0 -6857 0 -6857 -150 0 -150 0 0 -4227
c0 -3494 2 -4225 13 -4213 64 72 115 138 110 144 -3 3 -1 6 5 6 5 0 12 -4 14
-8 2 -4 100 -88 218 -186 118 -99 219 -182 223 -186 9 -8 -348 -443 -367 -448
-6 -1 -55 34 -108 78 -53 44 -99 80 -102 80 -3 0 -6 -355 -6 -790 l0 -790 844
0 843 0 -31 60 -31 60 -713 0 -713 0 1 235 c1 129 4 234 8 234 4 -1 140 -1
304 0 l296 1 43 99 43 99 65 -29 c270 -115 268 -114 260 -134 -4 -11 -8 -23
-8 -27 -1 -5 89 -8 199 -8 l201 0 59 30 60 30 0 528 0 527 -270 349 c-149 192
-269 352 -268 356 2 5 123 101 271 214 l267 207 0 3750 0 3749 -615 0 -615 0
0 235 0 235 611 0 c337 0 613 1 616 3 2 2 2 136 1 298 l-3 294 -56 -82 -55
-82 -267 183 -266 184 182 265 182 265 138 -95 c76 -52 140 -93 143 -91 5 5 6
8070 1 8074 -2 2 -53 -53 -113 -123 -68 -79 -108 -133 -107 -145 2 -15 -62
-61 -284 -208 l-287 -189 -156 237 c-221 337 -224 343 -213 350 5 4 99 65 208
137 l198 129 -43 38 c-38 34 -41 40 -29 55 8 10 123 143 257 296 133 153 240
282 237 287 -4 6 1 10 9 10 9 0 16 -4 16 -9 0 -10 294 -271 305 -271 3 0 4
358 3 797 l-3 796 -92 25 c-69 18 -93 29 -93 41 0 9 43 177 95 375 l95 358 0
2435 c0 2120 -2 2434 -14 2423 -12 -9 -19 -7 -35 12 -32 37 -351 462 -350 468
0 3 90 72 199 154 l200 148 0 1348 0 1349 -67 -20 c-187 -54 -333 -92 -337
-88 -2 2 -28 92 -58 199 l-54 195 -357 3 -357 2 0 235 0 235 1380 0 1380 0 0
-235 0 -235 -615 0 -615 0 0 -1575 c0 -866 2 -1575 4 -1575 2 0 36 25 76 56
40 30 73 54 74 52 1 -2 66 -89 144 -194 78 -105 142 -193 142 -196 0 -13 -382
-290 -389 -282 -4 5 -17 22 -29 38 l-22 29 0 -492 c0 -448 1 -491 16 -491 17
0 624 139 635 146 3 2 27 -90 53 -204 26 -114 50 -217 53 -229 3 -12 38 -47
80 -79 68 -51 79 -56 114 -51 39 5 39 5 45 -35 6 -36 16 -46 145 -145 77 -58
139 -109 139 -113 0 -12 -483 -642 -501 -653 -12 -8 -84 42 -335 233 -175 133
-325 248 -333 255 -11 11 1 31 68 121 45 59 79 109 77 111 -2 3 -21 0 -43 -6
-71 -20 -63 -37 -138 289 -38 165 -70 298 -72 297 -4 -5 -4 -3769 0 -3774 5
-5 137 195 137 207 0 13 17 13 22 0 2 -6 103 -76 224 -158 l221 -147 -43 -64
-43 -64 22 -28 c12 -15 27 -29 33 -31 7 -2 -29 -153 -96 -403 -58 -220 -109
-408 -113 -417 -9 -25 -34 -23 -202 22 -82 22 -153 40 -157 40 -5 0 -9 -806
-10 -1790 -2 -985 0 -1790 5 -1790 4 0 7 5 7 11 0 5 4 8 9 5 5 -3 30 72 57
167 26 94 50 174 52 177 1 2 6 -1 10 -7 4 -6 91 -34 194 -63 110 -32 185 -58
183 -64 -2 -6 -18 -60 -35 -121 -65 -230 -71 -245 -86 -245 -8 0 -96 23 -194
51 -119 35 -180 57 -180 65 0 8 -4 14 -10 14 -6 0 -10 -73 -10 -199 l0 -198
61 -7 c34 -3 172 -6 305 -6 l244 0 0 -62 c-1 -156 -19 -631 -24 -636 -4 -3
-31 -4 -61 -3 -66 2 -63 19 -33 -191 12 -86 20 -159 17 -163 -6 -5 -449 -75
-481 -75 -11 0 -18 10 -21 33 -2 17 -5 -642 -5 -1465 -2 -1488 -2 -1498 18
-1510 11 -7 20 -18 20 -24 0 -6 -9 -19 -20 -29 -20 -18 -20 -31 -20 -1607 l0
-1588 615 0 616 0 -1 -242 -1 -243 112 -105 c62 -58 110 -111 108 -118 -6 -19
-501 -543 -510 -540 -4 2 -130 117 -279 257 l-271 255 48 50 c26 28 84 88 127
133 l80 82 -313 3 c-172 2 -317 0 -322 -3 -5 -3 -8 -327 -7 -789 l3 -784 100
-20 c55 -10 101 -20 102 -21 5 -3 -59 -310 -65 -317 -6 -6 -34 -2 -119 17
l-23 5 0 -264 c0 -256 1 -265 20 -271 25 -8 25 -13 0 -45 -19 -25 -20 -55 -20
-2020 l0 -1995 47 50 c26 28 102 107 168 177 l120 127 280 -266 c154 -146 281
-272 283 -280 3 -12 -521 -573 -535 -573 -3 0 -86 77 -184 171 l-179 171 0
-301 0 -300 205 -265 c113 -146 205 -274 205 -284 0 -13 -66 -69 -205 -177
l-205 -157 0 -549 c0 -302 2 -549 5 -549 3 0 24 10 47 21 50 26 43 33 130
-131 34 -63 64 -117 69 -120 4 -3 189 -4 411 -2 l403 3 90 136 c50 75 89 141
87 146 -4 13 -4 13 194 -118 l181 -120 -44 -66 -45 -67 2 -191 1 -191 -573 0
-573 0 -110 -60 -110 -60 782 0 783 0 2 1476 c2 812 1 1478 -1 1480 -3 2 -24
-30 -48 -71 -25 -42 -50 -79 -58 -81 -8 -3 -179 88 -380 202 -276 156 -365
211 -362 223 2 9 96 178 208 377 l205 361 214 -122 215 -122 3 389 c1 214 1
562 0 773 l-3 383 -119 -100 c-115 -96 -120 -99 -137 -81 -10 10 -137 160
-282 333 l-265 314 27 20 c14 11 164 137 334 279 l307 259 20 -24 c11 -13 42
-49 68 -80 l47 -58 3 217 2 217 -134 246 c-74 135 -136 251 -138 258 -2 8 51
43 135 90 l137 76 0 1022 0 1023 -72 -33 c-40 -19 -102 -48 -138 -65 -35 -17
-68 -27 -72 -23 -8 8 -168 347 -168 356 0 3 4 6 9 6 5 0 86 36 181 81 95 44
174 79 176 77 2 -2 21 -42 43 -88 l40 -84 3 39 c2 22 2 257 0 523 l-2 482
-150 0 -150 0 0 1738 c0 1017 4 1761 9 1793 5 30 12 140 15 244 4 105 9 238
13 297 6 106 5 108 -16 108 l-21 0 -2 2950 -3 2950 -295 -260 c-186 -164 -302
-260 -315 -259 -13 0 -102 94 -270 285 -137 157 -272 310 -299 340 l-49 56 24
23 c90 89 674 594 679 588 70 -83 523 -593 526 -593 2 0 4 1298 4 2885 l0
2886 -45 -27 c-25 -14 -47 -25 -49 -23 -2 2 -41 65 -88 139 -47 74 -97 154
-111 177 l-26 41 102 65 c56 36 103 65 104 63 1 -1 -20 -61 -47 -134 -28 -73
-50 -136 -50 -141 0 -13 271 -113 292 -108 17 5 18 -5 18 -160 l0 -164 43 3
42 3 3 120 c1 66 7 124 12 129 5 5 27 2 55 -9 26 -9 50 -13 55 -9 4 5 50 122
102 260 l95 250 -159 60 -158 59 0 137 c0 75 4 139 8 142 4 2 44 -6 88 -19 43
-12 82 -20 85 -16 6 5 39 111 39 123 0 2 -16 12 -35 22 -19 11 -35 23 -35 28
0 5 4 7 9 3 5 -3 13 0 17 6 4 7 3 9 -4 5 -6 -3 -14 -1 -17 5 -13 21 4 21 38 0
43 -26 44 -26 49 3 4 21 -3 31 -43 58 -27 18 -51 38 -53 44 -2 6 2 64 10 129
8 64 14 119 12 120 -2 2 -82 25 -178 52 -137 39 -177 47 -185 37 -7 -9 -41 22
-130 121 -66 74 -124 134 -128 134 -4 1 -43 -35 -85 -79 l-77 -80 -97 93 -97
93 91 97 91 98 43 -42 44 -43 37 35 c21 20 99 91 173 159 125 114 135 127 140
165 3 23 3 52 0 64 -5 22 -5 22 -46 -8 l-41 -31 -210 303 -210 302 31 23 c17
13 37 27 44 31 10 5 12 18 7 45 -6 29 -14 40 -41 51 -19 8 -34 16 -34 19 0 3
27 73 60 156 33 83 60 154 60 158 0 4 -27 24 -61 45 -58 36 -60 39 -46 60 8
12 40 64 72 115 32 52 61 90 64 85 3 -5 35 -27 71 -49 36 -23 84 -53 108 -68
l42 -26 -26 -41 c-14 -23 -24 -42 -22 -44 3 -3 177 -75 181 -75 1 0 1 517 -1
1150 l-2 1150 -1580 0 -1580 0 -2 -899z m1105 -2735 c37 -28 67 -54 67 -58 0
-11 -103 -148 -110 -148 -14 0 -155 112 -152 121 7 27 107 147 117 141 6 -4
42 -29 78 -56z m2157 -1109 c-1 -322 -3 -427 -12 -412 -6 11 -18 28 -26 38
-14 16 -17 16 -39 2 l-23 -15 0 462 1 463 49 -53 50 -53 0 -432z m-585 -4348
c55 -12 101 -24 103 -25 3 -1 -49 -216 -53 -222 -3 -4 -181 37 -212 49 l-21 8
19 78 c40 156 40 155 52 145 7 -5 57 -20 112 -33z m-49 -4382 c-3 -12 -6 -61
-6 -109 l0 -88 -102 0 c-57 0 -109 4 -116 9 -11 6 -12 31 -7 112 l7 104 115
-3 c113 -3 115 -4 109 -25z m6 -498 c26 -7 48 -18 48 -24 0 -13 -36 -120 -45
-134 -8 -13 -157 39 -152 53 2 6 14 41 26 78 l22 66 26 -13 c15 -8 49 -20 75
-26z m112 -4113 c82 -25 154 -50 160 -56 11 -11 -235 -7 -363 6 l-53 6 6 36
c3 21 6 47 6 59 0 21 1 22 48 8 26 -8 114 -35 196 -59z m45 -422 c4 -3 -246
-514 -252 -514 -11 0 -517 250 -517 255 0 3 56 120 124 260 l124 254 259 -126
c142 -69 260 -127 262 -129z m-689 -1233 c0 -5 7 -73 15 -152 8 -78 14 -143
13 -144 -7 -6 -303 -33 -307 -29 -6 5 -29 220 -30 270 l-1 31 148 15 c81 8
150 16 155 17 4 0 7 -3 7 -8z m816 -376 c-1 -11 -111 -95 -124 -95 -7 0 -62
65 -62 74 0 3 28 28 62 57 l62 51 32 -38 c17 -22 31 -43 30 -49z m412 -3256
c103 -12 103 -12 98 -38 -3 -14 -11 -71 -17 -126 -7 -55 -15 -104 -19 -108 -6
-7 -258 21 -269 29 -2 2 4 64 14 137 l17 134 37 -7 c20 -5 82 -14 139 -21z
m-634 -983 c26 -91 46 -169 42 -174 -6 -11 -334 -107 -341 -100 -5 4 -105 332
-105 342 0 3 8 6 18 6 9 0 82 20 162 45 80 24 152 44 160 44 11 1 28 -43 64
-163z m-95 -632 c6 -5 -79 -357 -88 -367 -8 -8 -359 70 -375 84 -6 5 57 303
79 365 2 8 66 -4 192 -34 103 -25 190 -46 192 -48z m-1634 -911 c275 -184 369
-252 367 -265 -3 -20 -494 -767 -504 -768 -3 0 -182 116 -397 258 l-390 258
261 392 c216 324 263 390 277 382 9 -5 183 -121 386 -257z m997 -1 c2 -6 228
-103 265 -114 8 -2 -7 -50 -44 -138 -30 -74 -58 -138 -62 -143 -7 -7 -267 95
-284 112 -8 8 103 290 115 291 3 0 8 -4 10 -8z m-762 -984 l57 -11 -15 -61
c-8 -34 -16 -63 -18 -64 -5 -6 -115 21 -120 30 -8 13 18 118 29 118 6 0 36 -5
67 -12z m14 -1618 c48 -176 86 -326 83 -333 -3 -8 -71 -32 -159 -57 -84 -23
-229 -64 -323 -90 -93 -26 -173 -45 -177 -41 -6 6 -189 654 -185 657 5 4 644
182 657 183 11 1 37 -77 104 -319z m1820 -2020 c41 -102 71 -188 68 -191 -8
-8 -405 -169 -407 -166 -1 1 -129 321 -162 405 -3 6 1 12 9 12 9 0 102 36 209
79 169 69 195 77 202 63 4 -10 41 -100 81 -202z"/>
<path d="M30318 35588 c-65 -193 -115 -354 -113 -357 7 -7 410 16 690 40 199
17 253 25 266 38 25 24 131 351 116 357 -55 20 -824 274 -832 274 -6 0 -63
-158 -127 -352z"/>
<path d="M33460 35906 c-73 -33 -71 -31 -46 -87 13 -27 26 -52 29 -55 2 -3 30
6 61 20 l57 25 -14 34 c-8 18 -21 45 -28 59 l-14 25 -45 -21z"/>
<path d="M28690 35788 l0 -88 36 0 36 0 -7 -112 c-8 -140 -10 -148 -41 -148
-22 0 -24 -4 -24 -49 0 -31 5 -53 15 -61 14 -12 14 -15 0 -30 -12 -13 -15 -47
-15 -176 l0 -159 109 -72 108 -71 37 44 38 45 41 -38 42 -37 3 247 c1 137 1
356 0 488 l-3 241 -80 -53 c-44 -28 -97 -63 -118 -76 l-37 -24 -70 108 -70
108 0 -87z"/>
<path d="M31838 35659 c-82 -71 -148 -133 -148 -138 0 -4 33 -42 73 -84 64
-67 75 -75 102 -72 24 4 25 3 7 -3 -13 -4 -24 -10 -25 -13 -1 -4 22 -34 51
-68 l54 -61 46 39 c100 84 247 222 247 232 0 10 -246 297 -255 298 -3 0 -71
-58 -152 -130z"/>
<path d="M31035 35229 c-41 -7 -737 -91 -840 -101 -79 -8 -22 -33 384 -169
228 -77 418 -139 422 -139 8 0 139 385 139 408 0 14 -30 14 -105 1z"/>
<path d="M33208 35079 l-97 -60 61 -97 c33 -53 61 -98 63 -100 3 -4 166 96
184 113 11 11 3 29 -45 109 -33 53 -61 96 -64 95 -3 0 -49 -27 -102 -60z"/>
<path d="M29672 34921 c-51 -27 -95 -51 -98 -54 -8 -7 97 -207 108 -207 16 0
209 101 206 108 -47 98 -105 202 -113 202 -5 0 -52 -22 -103 -49z"/>
<path d="M32988 34598 c-71 -23 -128 -47 -128 -53 0 -19 80 -265 86 -265 5 0
267 81 271 84 6 4 -86 270 -93 272 -5 2 -66 -16 -136 -38z"/>
<path d="M26321 34516 l-54 -55 52 -32 c51 -32 51 -32 35 -57 -9 -14 -25 -40
-36 -59 -11 -18 -24 -33 -29 -33 -13 0 -119 71 -119 79 0 4 4 11 10 17 6 6
-18 37 -70 89 -44 43 -82 77 -84 74 -3 -3 -6 -180 -6 -395 -1 -351 1 -390 15
-399 13 -8 20 -5 32 12 8 12 29 42 47 67 l32 46 34 -25 34 -25 324 0 c277 0
323 2 319 14 -3 8 -9 30 -12 48 l-7 34 56 16 55 15 16 -52 c19 -65 19 -63 -2
-68 -10 -3 27 -5 81 -6 l99 -1 -6 99 -7 99 118 7 c64 3 130 9 145 12 l29 5
-36 24 c-33 23 -52 26 -252 39 -120 8 -218 16 -220 18 -1 1 4 92 12 202 7 110
13 210 14 223 l0 22 -283 0 -283 0 -53 -54z"/>
<path d="M27819 34455 c-23 -64 -47 -122 -53 -130 -9 -13 -27 -9 -125 30 -63
24 -116 43 -118 41 -2 -2 -6 -19 -9 -37 -5 -30 -1 -36 29 -55 29 -19 36 -20
58 -8 13 7 27 13 31 14 8 0 88 -153 88 -168 0 -7 -133 -74 -174 -87 -35 -11
-11 -12 104 -4 63 4 116 6 119 4 11 -11 12 -106 2 -119 -8 -9 -8 -16 -2 -20 5
-4 13 -27 17 -51 l6 -45 52 -2 c28 -1 256 0 507 2 427 2 457 2 466 -15 6 -10
15 -16 20 -14 13 5 203 228 202 237 0 4 -142 127 -315 275 -314 266 -315 267
-361 267 -40 0 -52 -5 -83 -35 l-36 -35 -51 35 -52 35 -140 0 -139 0 -43 -115z"/>
<path d="M34280 34369 c-146 -104 -311 -222 -367 -262 -56 -40 -101 -76 -100
-81 8 -27 534 -745 543 -742 7 3 70 46 140 97 71 50 130 92 131 93 1 1 -34 -1
-76 -2 -100 -5 -182 12 -211 43 l-22 23 23 31 c13 17 66 64 117 104 138 105
578 564 600 625 1 5 -30 27 -70 50 l-73 42 -20 -35 c-11 -19 -33 -57 -50 -84
l-30 -49 -79 111 c-102 143 -168 227 -181 227 -5 0 -129 -86 -275 -191z"/>
<path d="M31518 34050 c-133 -155 -244 -287 -246 -293 -2 -10 521 -474 564
-500 9 -5 91 83 257 275 135 156 244 288 244 293 -1 6 -123 115 -271 244 -149
128 -278 240 -288 248 -14 13 -40 -13 -260 -267z"/>
<path d="M33211 34040 c-85 -39 -156 -72 -158 -73 -2 -2 30 -75 71 -163 49
-107 78 -158 87 -156 40 10 309 137 308 146 -1 20 -135 310 -145 313 -5 1 -78
-29 -163 -67z"/>
<path d="M30472 33638 c-64 -188 -88 -270 -79 -273 166 -61 522 -174 527 -168
13 15 180 516 174 522 -3 3 -124 47 -268 96 l-263 91 -91 -268z"/>
<path d="M28986 33417 c-44 -54 -86 -97 -94 -97 -8 0 -51 31 -96 68 -44 38
-87 72 -93 76 -10 6 -13 -18 -13 -107 0 -111 1 -114 25 -127 14 -7 25 -17 25
-22 0 -5 -11 -26 -25 -46 -21 -31 -25 -48 -25 -109 0 -76 1 -77 40 -86 25 -6
26 -4 68 151 23 86 42 163 42 170 0 6 5 12 10 12 6 0 10 -4 10 -9 0 -12 123
-43 142 -36 9 4 28 24 43 44 24 35 26 45 23 126 l-3 88 -79 -96z"/>
<path d="M34684 33321 l4 -63 -154 7 -154 7 0 -23 c0 -49 -5 -50 -155 -35 -77
8 -141 13 -142 12 -1 0 -13 -129 -27 -286 -15 -157 -28 -297 -31 -312 -4 -26
-3 -27 63 -33 37 -4 92 -10 122 -13 l55 -7 -310 -152 c-231 -114 -311 -149
-313 -138 -2 8 -7 15 -10 15 -19 -1 -264 -39 -267 -42 -4 -4 34 -261 40 -266
3 -3 67 4 142 14 l138 20 142 -288 c78 -158 146 -288 153 -288 6 0 37 14 70
30 l60 30 0 -37 c0 -21 -7 -83 -15 -138 -21 -147 -21 -155 13 -155 22 0 35
-12 71 -65 24 -36 47 -65 51 -65 4 0 13 7 20 15 7 8 16 15 20 15 4 0 37 -36
71 -79 35 -44 66 -80 69 -80 14 -2 285 227 285 240 0 11 34 15 185 21 102 4
209 8 238 10 l52 3 -61 100 c-34 55 -67 106 -74 114 -11 11 -25 6 -90 -33 -43
-26 -79 -46 -81 -44 -1 2 6 68 17 147 10 80 17 146 15 148 -2 2 -98 16 -212
32 l-209 27 145 73 c80 40 146 75 148 76 2 2 -20 49 -48 105 l-52 103 36 51
c20 28 52 72 71 97 l35 46 -132 100 c-166 124 -156 118 -177 99 -16 -14 -19
-11 -49 50 -39 79 -38 80 96 66 53 -6 100 -7 103 -4 4 4 12 68 19 142 7 74 14
137 17 140 2 3 23 5 46 5 l42 0 5 87 c3 47 8 89 12 93 3 3 40 9 81 12 l76 6
-17 23 c-9 12 -44 40 -77 62 -85 57 -103 79 -142 179 l-34 88 5 -64z"/>
<path d="M32645 33230 c-137 -78 -249 -144 -248 -148 7 -26 283 -506 290 -504
33 11 503 279 503 287 0 16 -274 498 -285 502 -5 1 -122 -60 -260 -137z"/>
<path d="M28165 32855 c-21 -70 -42 -128 -47 -131 -4 -3 -48 16 -97 41 -50 25
-95 45 -101 45 -18 0 -125 -91 -125 -106 0 -13 393 -514 403 -514 11 0 82 53
82 60 0 4 -7 13 -16 20 -37 31 -40 80 -5 80 10 0 38 -7 64 -16 l47 -16 165
132 c115 92 165 138 165 152 0 11 -49 82 -109 157 l-110 137 -123 38 c-68 21
-130 40 -138 43 -11 3 -25 -27 -55 -122z"/>
<path d="M31679 32794 c-112 -81 -208 -150 -213 -154 -6 -6 213 -327 299 -438
5 -6 425 300 425 309 0 8 -269 388 -295 417 -9 10 -54 -18 -216 -134z"/>
<path d="M28910 32796 c0 -7 -51 -199 -91 -340 -16 -59 -29 -110 -27 -111 5
-5 203 -25 244 -25 l34 0 0 219 0 220 -52 15 c-83 23 -108 29 -108 22z"/>
<path d="M27516 32473 l-94 -189 199 -99 c109 -55 199 -101 199 -102 0 -2 -10
-18 -22 -37 -46 -70 -37 -75 -280 125 -156 129 -225 179 -234 173 -31 -22
-295 -356 -291 -368 3 -7 102 -144 220 -304 190 -257 211 -289 183 -280 -17 6
-36 15 -42 20 -8 6 -15 -2 -23 -24 -10 -27 -9 -35 3 -43 12 -10 12 -13 -5 -24
-11 -6 -27 -28 -35 -47 -12 -29 -19 -34 -48 -34 -68 0 -92 -27 -29 -32 20 -2
38 -9 41 -15 3 -10 -13 -11 -63 -7 -56 4 -70 2 -95 -16 l-29 -21 67 -101 67
-101 6 -206 c4 -113 7 -239 8 -279 l1 -72 158 5 c86 3 229 8 317 11 l160 6 -6
216 c-4 120 -7 261 -8 315 l-1 99 -157 -8 c-137 -6 -156 -5 -146 8 10 11 -3
36 -67 133 l-80 119 31 32 c17 17 29 38 27 45 -3 16 102 119 121 119 9 0 560
398 594 430 9 8 -521 731 -540 738 -7 2 -50 -72 -107 -185z"/>
<path d="M31998 32065 c-128 -113 -233 -212 -233 -219 0 -13 357 -428 402
-468 17 -15 32 -4 228 168 116 102 223 198 239 213 l29 29 -213 241 c-116 133
-214 241 -215 241 -2 0 -109 -92 -237 -205z"/>
<path d="M29866 32087 c-13 -23 -39 -72 -57 -109 -26 -54 -36 -65 -46 -56 -16
13 -18 11 -67 -62 -19 -30 -32 -57 -28 -61 8 -8 187 -50 326 -77 l89 -18 64
129 c35 71 62 131 61 132 -2 1 -74 38 -161 83 l-157 80 -24 -41z"/>
<path d="M36751 32006 c-4 -6 -68 -116 -141 -244 -114 -199 -131 -235 -119
-246 8 -7 149 -91 314 -186 l300 -173 90 -5 90 -4 192 334 c105 183 189 336
185 340 -4 4 -83 23 -177 42 -674 142 -726 152 -734 142z"/>
<path d="M29044 31741 c-13 -132 -27 -236 -33 -240 -6 -4 -68 -1 -138 5 -182
18 -183 18 -183 -6 0 -12 10 -40 21 -62 l22 -42 -22 -14 c-14 -10 -21 -25 -21
-48 0 -28 -4 -34 -21 -34 l-21 0 21 -17 c18 -16 21 -30 23 -128 l3 -110 24 92
c12 51 29 97 37 104 11 9 47 2 161 -29 82 -22 149 -39 151 -38 1 2 1 182 0
402 l-3 399 -21 -234z"/>
<path d="M30862 31723 c-78 -64 -140 -118 -139 -119 5 -5 530 -74 534 -70 4 3
-244 306 -250 306 -2 0 -67 -53 -145 -117z"/>
<path d="M30932 31363 c-92 -146 -90 -128 -27 -206 17 -20 33 -37 38 -37 4 0
71 53 148 117 111 93 137 119 127 129 -7 6 -56 38 -108 71 l-95 59 -83 -133z"/>
<path d="M29477 31338 c-98 -44 -182 -89 -187 -98 -8 -14 46 -53 338 -245 191
-125 352 -229 358 -232 11 -4 179 242 179 262 0 6 -59 12 -149 15 -86 3 -151
9 -153 15 -2 6 57 9 167 6 105 -2 170 1 170 7 0 14 -79 22 -230 22 -98 0 -140
4 -147 13 -5 6 -40 81 -78 165 -38 83 -74 152 -79 152 -6 0 -91 -37 -189 -82z"/>
<path d="M30280 31340 c-74 -43 -139 -80 -145 -83 -9 -3 35 -97 66 -139 16
-21 18 -19 95 98 128 194 135 204 127 203 -5 0 -69 -36 -143 -79z"/>
<path d="M31813 31171 c-117 -80 -212 -151 -213 -158 0 -17 54 -22 320 -27
138 -3 263 -11 303 -19 37 -8 67 -12 67 -9 0 12 -246 361 -255 361 -5 -1 -105
-67 -222 -148z"/>
<path d="M33557 31303 c-4 -3 -7 -32 -7 -64 0 -65 5 -69 80 -69 47 0 47 0 54
38 11 69 8 89 -16 96 -31 8 -103 8 -111 -1z"/>
<path d="M28340 31142 c-69 -51 -124 -99 -122 -105 7 -22 177 -246 190 -249 7
-2 -13 -35 -49 -81 -33 -43 -59 -82 -57 -87 3 -8 236 -190 244 -190 6 0 184
239 184 247 0 4 -50 46 -110 92 -61 46 -110 87 -108 92 2 4 36 32 75 62 l73
54 -98 130 -97 130 -125 -95z"/>
<path d="M34875 30899 c-227 -205 -269 -232 -348 -227 -33 2 -47 -1 -47 -9 0
-7 5 -13 10 -13 6 0 10 -5 10 -11 0 -5 52 -96 116 -200 110 -179 116 -192 110
-229 -3 -22 -5 -40 -4 -40 2 -1 143 -27 315 -59 l312 -58 10 51 c6 28 31 163
56 299 25 137 46 252 48 257 2 7 -355 414 -372 424 -3 2 -100 -81 -216 -185z"/>
<path d="M30740 31061 c0 -6 -8 -10 -18 -8 -17 2 -134 -129 -337 -377 l-40
-49 43 -37 c23 -21 42 -45 42 -53 0 -9 -34 -111 -75 -228 -41 -116 -75 -220
-75 -230 0 -16 8 -19 53 -19 30 0 88 -3 129 -6 67 -6 77 -10 92 -33 41 -66 39
-65 92 -29 27 18 51 36 54 39 3 4 75 1 160 -6 85 -7 156 -12 158 -10 11 10
100 281 94 286 -4 4 -43 18 -87 33 -44 14 -86 30 -93 34 -12 8 11 37 215 278
l43 51 -202 169 c-247 207 -248 208 -248 195z"/>
<path d="M31437 30909 c-64 -44 -117 -84 -117 -90 0 -5 26 -46 58 -91 32 -46
143 -206 246 -356 l188 -273 27 17 c14 10 69 48 122 85 l97 67 52 -182 c29
-99 56 -188 61 -197 9 -19 162 -41 1244 -177 l289 -37 10 -33 c5 -17 12 -32
15 -32 6 0 133 332 129 335 -2 1 -79 31 -173 65 -93 35 -174 67 -179 71 -5 4
24 46 63 94 39 47 71 90 71 94 0 8 -542 452 -589 483 -22 14 -82 23 -127 19
-6 -1 -62 -64 -124 -141 -62 -77 -116 -140 -119 -140 -3 0 -120 -34 -260 -74
-139 -41 -249 -71 -245 -67 5 4 87 61 182 126 94 65 172 123 172 130 0 15
-149 227 -168 238 -7 5 -35 10 -60 12 -26 2 -101 10 -167 20 -66 9 -145 18
-175 21 -30 3 -82 10 -115 15 -33 5 -79 9 -103 9 -26 0 -41 4 -37 10 3 6 -1 7
-10 4 -27 -11 -169 6 -156 19 8 8 69 4 218 -12 333 -36 527 -61 543 -70 20
-11 51 1 42 16 -8 13 -176 37 -545 78 -126 14 -232 25 -236 25 -4 0 -59 -36
-124 -81z"/>
<path d="M32685 30729 c-22 -16 -40 -34 -40 -39 0 -4 15 -29 32 -54 l33 -46
50 36 c30 21 47 41 43 47 -14 26 -65 87 -71 87 -4 0 -25 -14 -47 -31z"/>
<path d="M29077 30560 l-167 -141 126 -152 c70 -84 135 -160 145 -171 17 -18
22 -14 181 119 89 76 163 143 163 149 0 10 -266 334 -275 335 -3 0 -80 -62
-173 -139z"/>
<path d="M40294 30575 c-18 -13 -17 -16 31 -64 27 -28 55 -51 62 -51 7 0 13
-7 13 -15 0 -37 315 -281 451 -350 56 -29 59 -29 83 -12 17 13 12 17 -55 54
-165 89 -280 177 -455 345 -102 99 -112 106 -130 93z"/>
<path d="M35567 30424 c-9 -65 -14 -120 -11 -123 6 -6 287 -50 292 -46 5 5 43
268 39 272 -2 1 -71 6 -154 9 l-150 5 -16 -117z"/>
<path d="M40058 30402 c-81 -59 -149 -111 -150 -116 -3 -14 436 -615 449 -616
13 0 493 347 493 356 0 3 -12 10 -28 17 -101 44 -301 189 -437 318 -92 87
-166 149 -176 149 -2 0 -70 -49 -151 -108z"/>
<path d="M36324 30205 c-136 -163 -245 -297 -243 -299 7 -5 563 -468 580 -483
15 -12 43 19 264 283 183 217 246 300 239 309 -14 22 -573 485 -583 485 -6 0
-121 -133 -257 -295z"/>
<path d="M29055 30153 c-4 -10 -42 -130 -85 -266 -42 -136 -80 -251 -84 -254
-3 -3 -35 3 -70 13 -61 18 -75 28 -203 149 -115 109 -142 129 -165 127 -19 -2
-58 -36 -135 -116 -59 -61 -138 -136 -175 -166 -38 -29 -68 -57 -68 -61 0 -4
16 -26 35 -49 20 -24 44 -54 55 -67 l19 -25 61 51 61 51 82 -76 82 -75 105
110 c58 61 108 111 113 111 4 0 7 -9 7 -20 0 -19 7 -20 190 -20 l190 0 0 300
c0 165 -2 300 -4 300 -2 0 -7 -8 -11 -17z"/>
<path d="M31507 30024 c-28 -57 -25 -61 61 -68 42 -3 112 -11 154 -17 136 -19
129 -15 -168 107 -30 13 -31 12 -47 -22z"/>
<path d="M26011 29866 c-9 -10 -9 -43 -1 -127 11 -126 11 -158 -2 -176 -5 -6
-5 -14 2 -18 6 -4 10 -106 11 -298 l1 -292 27 105 c15 58 32 118 39 133 7 16
12 34 12 42 0 20 5 21 133 54 130 34 215 62 267 87 46 22 130 76 131 83 10 66
7 73 -37 118 -51 50 -236 144 -452 229 -83 33 -121 52 -118 61 7 17 1 17 -13
-1z"/>
<path d="M30740 29611 c-31 -35 -58 -57 -66 -54 -8 3 -14 1 -14 -4 0 -16 -47
-62 -56 -55 -4 4 -4 2 0 -5 4 -7 -74 -119 -189 -273 -108 -144 -198 -267 -200
-273 -3 -7 25 -34 60 -60 36 -27 63 -52 61 -56 -3 -4 7 -7 23 -6 19 1 78 40
182 120 85 65 166 125 180 132 15 7 77 65 138 129 96 99 111 118 100 131 -11
12 -11 17 1 27 8 6 27 28 43 48 24 32 26 40 15 58 -7 11 -18 20 -25 20 -6 0
-24 15 -40 33 -15 18 -43 44 -61 56 -19 13 -29 27 -26 34 4 7 3 9 -1 4 -5 -4
-23 6 -40 23 l-32 31 -53 -60z"/>
<path d="M28750 29508 c-96 -16 -176 -31 -178 -33 -5 -5 57 -396 66 -419 6
-13 19 -19 40 -20 18 -1 32 1 32 4 0 3 66 19 148 34 81 16 152 33 158 38 8 6
0 63 -28 201 -42 211 -46 228 -56 226 -4 -1 -86 -15 -182 -31z"/>
<path d="M40223 29267 c-16 -24 -272 -501 -270 -503 1 0 91 -49 199 -108 210
-113 221 -117 318 -94 l51 12 52 98 c34 65 57 96 65 93 11 -4 42 12 81 41 2 2
-4 15 -13 28 -22 34 -21 44 14 109 l31 56 -23 14 c-24 15 -407 222 -465 251
-25 12 -34 13 -40 3z"/>
<path d="M34200 29060 l-35 -5 -37 -220 c-20 -121 -39 -236 -42 -255 l-6 -36
275 -44 c151 -24 276 -42 278 -39 5 5 87 509 87 529 0 12 -41 22 -183 45 -177
29 -265 35 -337 25z"/>
<path d="M33486 28855 c-75 -101 -136 -186 -136 -189 0 -3 45 -38 100 -78 61
-44 99 -77 96 -85 -3 -7 -44 -70 -92 -139 -68 -99 -84 -128 -73 -135 8 -5 27
-17 42 -27 26 -15 28 -21 23 -59 -5 -38 -3 -43 17 -48 21 -5 125 -27 212 -46
73 -15 71 -17 89 79 12 62 28 104 53 146 l36 58 -29 23 -28 22 147 199 c137
187 145 200 129 215 -9 9 -88 69 -176 133 l-158 116 -58 0 -59 0 -135 -185z"/>
<path d="M32291 28998 c-377 -7 -529 -16 -816 -49 -99 -11 -191 -22 -205 -23
-16 -2 -26 -10 -28 -23 -2 -10 42 -183 97 -384 54 -200 97 -367 95 -371 -2 -3
-22 -9 -45 -13 -24 -4 -39 -12 -36 -18 2 -7 28 -105 57 -219 29 -115 58 -208
64 -208 6 0 98 23 205 50 107 28 197 48 200 45 3 -4 96 -121 206 -262 110
-141 205 -258 210 -260 6 -2 40 19 75 46 35 28 66 49 67 47 2 -2 10 -119 17
-260 8 -142 16 -259 18 -261 4 -2 861 44 864 48 5 5 -44 848 -50 854 -3 3 -92
1 -198 -5 -105 -6 -195 -9 -199 -7 -4 3 -94 116 -199 252 -106 137 -197 254
-203 261 -23 29 5 18 118 -48 66 -38 123 -66 126 -62 10 10 278 468 284 484 4
9 -49 46 -160 111 -154 91 -165 100 -165 127 0 26 5 31 41 40 39 11 40 12 33
43 -16 74 -20 78 -71 75 -27 -2 -207 -6 -402 -10z m-84 -791 l73 -12 -187
-145 c-103 -80 -192 -148 -198 -152 -8 -5 -22 29 -43 112 -18 66 -32 124 -32
130 0 5 19 15 43 21 235 65 230 65 344 46z"/>
<path d="M41201 28854 l-53 -65 26 -28 c48 -50 67 -55 124 -37 34 12 59 28 76
51 l26 34 -67 55 c-37 31 -70 56 -73 56 -3 0 -29 -30 -59 -66z"/>
<path d="M28482 28784 c-16 -42 -132 -450 -132 -466 0 -9 119 -47 350 -112
192 -55 352 -98 354 -95 2 2 36 117 76 254 74 263 87 302 101 311 5 3 88 18
184 33 97 16 177 30 179 32 2 2 0 13 -4 25 -8 20 -14 21 -467 27 -252 4 -497
10 -544 13 l-85 7 -12 -29z"/>
<path d="M30217 28800 c-64 -4 -120 -9 -123 -13 -5 -5 73 -117 83 -117 2 0 40
27 83 60 75 57 101 82 83 78 -4 0 -61 -4 -126 -8z"/>
<path d="M26020 26680 c0 -1155 2 -2100 5 -2100 3 0 24 9 45 20 l40 20 0 2070
0 2069 -37 10 c-21 6 -41 11 -45 11 -5 0 -8 -945 -8 -2100z"/>
<path d="M36784 28464 c-130 -157 -235 -286 -233 -288 39 -32 549 -453 560
-463 15 -13 41 15 250 268 129 154 234 287 234 295 0 14 -548 474 -565 474 -5
0 -115 -128 -246 -286z"/>
<path d="M35313 28714 c-29 -13 -53 -27 -53 -31 0 -4 10 -33 23 -66 25 -65 24
-65 111 -26 27 12 45 26 43 32 -39 94 -51 117 -61 116 -6 0 -35 -11 -63 -25z"/>
<path d="M36085 28598 c-60 -21 -111 -41 -113 -43 -8 -7 73 -225 83 -225 10 0
202 67 216 76 6 3 -65 222 -74 230 -1 1 -51 -16 -112 -38z"/>
<path d="M38316 28493 c-49 -70 -89 -133 -90 -141 -1 -7 60 -56 135 -108 l136
-93 43 60 c37 53 44 59 59 46 9 -7 48 -41 87 -75 39 -34 75 -62 80 -61 5 0 53
51 106 113 l97 113 -117 102 -117 101 -41 -47 -41 -47 -110 77 c-61 42 -117
79 -125 82 -9 4 -43 -37 -102 -122z"/>
<path d="M33812 27908 c-178 -257 -240 -353 -230 -359 7 -4 99 -67 203 -139
164 -114 190 -135 190 -157 0 -24 5 -27 55 -38 40 -8 78 -27 140 -71 47 -33
90 -63 97 -67 12 -7 485 664 487 691 1 12 -676 492 -694 492 -3 0 -115 -158
-248 -352z"/>
<path d="M37968 28117 c-46 -56 -101 -123 -121 -148 l-37 -46 149 -121 150
-122 107 133 c59 72 113 139 121 148 12 14 -4 30 -136 137 l-150 122 -83 -103z"/>
<path d="M27696 27748 c-185 -292 -233 -375 -224 -384 7 -6 119 -78 248 -159
129 -81 239 -151 243 -155 5 -4 -14 -15 -41 -24 l-50 -17 40 -112 c21 -61 41
-113 42 -115 2 -1 52 15 112 36 l109 38 -3 34 c-3 30 -2 33 13 20 9 -8 19 -9
24 -4 16 17 461 723 461 731 0 4 -161 109 -357 233 -196 124 -362 231 -369
237 -10 10 -61 -64 -248 -359z"/>
<path d="M41290 27820 c0 -4 28 -13 62 -20 34 -8 58 -15 52 -17 -6 -2 -37 3
-70 10 l-59 14 -72 -66 c-40 -36 -73 -70 -73 -76 0 -5 76 -89 169 -185 l168
-175 177 169 c97 93 176 172 176 177 0 5 -11 14 -24 21 -14 7 -24 18 -24 23 1
6 -38 22 -88 36 -128 38 -394 98 -394 89z"/>
<path d="M30593 27584 c-41 -85 -74 -157 -72 -158 2 -2 13 -8 24 -14 18 -10
14 -13 -40 -38 -33 -15 -61 -28 -63 -29 -2 -2 54 -123 123 -270 69 -147 124
-269 123 -270 -175 -130 -428 -330 -426 -336 7 -18 364 -479 371 -479 7 0 372
274 458 345 l27 22 -83 109 c-46 60 -82 111 -79 113 2 2 158 76 346 166 244
115 342 166 339 176 -16 55 -12 60 154 172 88 60 167 112 175 117 11 6 -15 51
-125 214 l-138 205 -149 -101 c-81 -56 -150 -99 -151 -97 -2 2 -34 69 -71 149
-37 80 -69 146 -71 148 -1 2 -64 -27 -140 -63 -76 -36 -144 -65 -152 -65 -8 0
-80 31 -159 70 l-146 69 -75 -155z"/>
<path d="M26526 27618 c-42 -146 -126 -457 -126 -465 0 -6 33 -20 73 -32 303
-93 568 -193 637 -240 48 -34 60 -34 75 2 31 75 155 551 145 557 -6 4 -181 53
-388 110 -207 57 -382 107 -389 112 -8 6 -16 -6 -27 -44z"/>
<path d="M38369 26765 c-101 -147 -184 -269 -184 -272 0 -4 62 -49 137 -101
76 -53 136 -97 135 -99 -5 -4 -757 106 -768 113 -5 3 -9 -1 -9 -8 0 -7 -11
-85 -25 -172 -13 -88 -22 -163 -19 -168 3 -4 15 -6 27 -4 12 3 53 8 91 11 50
5 66 4 61 -5 -4 -6 -14 -10 -23 -9 -33 4 -162 -14 -162 -22 0 -13 16 -12 360
26 408 44 503 56 515 67 5 5 1 8 -10 8 -18 0 -18 1 -1 13 9 7 20 33 24 60 l7
47 62 -41 c59 -39 65 -41 115 -35 29 4 58 10 64 14 15 9 324 458 324 469 -1 6
-507 360 -530 371 -4 1 -90 -117 -191 -263z"/>
<path d="M33630 26834 c-80 -25 -146 -47 -147 -48 -5 -4 89 -301 97 -310 5 -5
76 12 164 39 144 45 155 50 150 70 -26 105 -93 290 -105 292 -8 1 -79 -18
-159 -43z"/>
<path d="M35510 26485 c-219 -256 -260 -309 -249 -319 96 -88 363 -308 383
-316 15 -5 25 -6 22 -2 -4 7 345 47 369 42 6 -1 13 -1 18 0 4 1 11 3 16 4 12
1 321 362 320 373 0 8 -593 516 -608 521 -5 2 -127 -135 -271 -303z"/>
<path d="M31860 26496 c-184 -71 -337 -131 -339 -132 -7 -6 254 -666 265 -671
9 -3 658 241 673 253 4 4 -233 624 -253 659 -11 20 -22 17 -346 -109z"/>
<path d="M32918 26180 c-67 -72 -124 -134 -126 -138 -1 -4 58 -65 132 -134
l133 -127 128 135 128 135 -29 31 c-16 16 -77 75 -136 129 l-106 99 -124 -130z"/>
<path d="M29181 26220 c-133 -21 -245 -41 -248 -44 -7 -6 67 -498 76 -508 3
-3 71 4 151 17 80 13 195 31 256 40 l111 17 -18 116 c-55 360 -63 402 -73 401
-6 -1 -121 -18 -255 -39z"/>
<path d="M30910 25966 c-206 -32 -377 -61 -379 -62 -5 -5 112 -733 121 -747 4
-7 116 7 375 48 202 32 372 61 376 65 8 7 -95 690 -111 736 -7 20 -11 20 -382
-40z"/>
<path d="M28410 25692 l-205 -215 210 -203 c116 -112 215 -203 221 -204 11 0
404 408 404 420 0 4 -96 99 -212 212 l-213 204 -205 -214z"/>
<path d="M26870 25561 c-206 -48 -380 -89 -386 -92 -7 -2 22 -144 81 -399 82
-350 95 -395 111 -393 21 2 777 175 782 179 3 2 -137 616 -175 772 -3 12 -12
22 -22 21 -9 0 -185 -40 -391 -88z"/>
<path d="M31605 25094 c-104 -42 -192 -77 -194 -79 -6 -7 151 -395 160 -395
13 0 373 141 383 151 9 8 -140 399 -152 398 -4 0 -92 -34 -197 -75z"/>
<path d="M30316 24596 c-110 -84 -201 -157 -203 -162 -3 -8 266 -366 302 -403
11 -11 45 11 219 143 113 86 206 159 206 161 0 9 -313 415 -319 414 -3 0 -96
-69 -205 -153z"/>
<path d="M31961 24659 c-69 -33 -127 -62 -130 -65 -3 -2 24 -62 58 -133 l64
-128 128 61 c71 34 129 66 128 71 0 6 -28 65 -62 132 l-62 121 -124 -59z"/>
<path d="M26020 19453 l0 -4933 150 0 150 0 0 -1680 0 -1680 40 20 c23 12 43
26 45 33 3 7 6 775 7 1707 l3 1695 -152 -3 -153 -3 0 434 c0 400 1 436 18 455
9 11 81 68 160 127 l143 106 -24 32 c-13 18 -84 113 -158 211 l-134 179 -6
576 c-4 369 -10 592 -17 621 -15 61 -15 80 2 80 12 0 15 75 19 488 l4 487 31
99 c18 55 32 103 32 107 0 4 -16 13 -35 19 l-35 12 0 2839 0 2840 -21 -11
c-24 -13 -21 -16 -47 35 l-21 40 -1 -4932z"/>
<path d="M29162 24229 c-21 -46 -103 -220 -180 -385 -78 -166 -142 -306 -142
-311 0 -6 99 -56 219 -113 122 -57 218 -108 216 -114 -2 -6 -47 -150 -100
-319 -53 -170 -94 -312 -90 -315 3 -4 187 -64 408 -133 319 -101 404 -124 412
-114 6 7 37 101 69 207 l60 195 100 -74 c54 -40 102 -73 106 -73 4 0 85 104
179 231 141 189 170 234 159 244 -38 35 -451 336 -458 333 -4 -2 -40 -47 -79
-100 l-72 -97 -47 15 c-109 33 -192 61 -198 66 -3 4 53 131 125 284 71 153
129 279 128 280 -1 1 -173 81 -382 179 -209 98 -383 183 -387 189 -3 5 -24
-28 -46 -75z"/>
<path d="M30732 24121 l-61 -69 64 -62 c36 -34 69 -60 73 -58 5 2 35 31 67 66
l58 63 -24 25 c-13 14 -45 43 -70 65 l-46 39 -61 -69z"/>
<path d="M26726 23908 c-55 -145 -101 -268 -103 -274 -2 -6 110 -54 264 -112
243 -93 293 -109 293 -99 0 2 45 122 100 267 55 144 100 265 100 269 0 7 -528
211 -546 211 -5 0 -54 -118 -108 -262z"/>
<path d="M34549 23946 l-96 -82 80 -95 c44 -52 81 -94 83 -94 1 0 46 35 98 79
l96 78 -63 75 c-34 41 -71 85 -82 98 l-20 24 -96 -83z"/>
<path d="M31051 23627 c-36 -60 -60 -112 -55 -117 5 -5 55 -35 111 -68 l101
-60 65 111 c56 97 63 113 48 121 -9 5 -59 35 -112 66 l-95 57 -63 -110z"/>
<path d="M34975 23569 c-121 -77 -226 -146 -233 -153 -10 -10 17 -58 134 -241
81 -127 152 -236 160 -244 11 -12 21 -9 68 20 31 18 56 36 56 39 0 4 -17 14
-37 24 -42 20 -113 74 -111 84 1 4 -2 15 -6 24 -5 10 0 34 12 60 21 47 120
165 135 160 4 -1 6 2 3 6 -3 5 4 18 16 28 38 34 78 133 78 194 0 53 -30 140
-47 140 -5 0 -107 -63 -228 -141z"/>
<path d="M34246 23443 c-42 -91 -75 -168 -73 -170 15 -14 332 -152 338 -146
13 13 149 317 147 325 -3 7 -322 158 -333 158 -1 0 -36 -75 -79 -167z"/>
<path d="M35384 23427 c-1 -13 -16 -56 -34 -96 -36 -83 -42 -144 -17 -182 10
-14 14 -29 10 -34 -14 -13 57 25 129 71 45 29 66 49 62 57 -40 68 -135 207
-141 207 -4 0 -9 -10 -9 -23z"/>
<path d="M33537 22989 c-93 -171 -165 -315 -160 -320 23 -23 626 -340 633
-332 9 9 330 604 333 616 2 9 -609 346 -628 347 -5 0 -86 -140 -178 -311z"/>
<path d="M27815 22637 c-154 -40 -281 -72 -283 -73 -3 -1 148 -587 152 -592 3
-2 587 146 592 150 1 2 -31 131 -72 288 -40 157 -73 288 -74 293 0 13 -30 7
-315 -66z"/>
<path d="M26743 22001 l-82 -58 54 -79 c31 -44 60 -80 65 -82 5 -2 37 16 72
39 109 73 105 59 40 155 -31 46 -59 84 -62 84 -3 -1 -42 -27 -87 -59z"/>
<path d="M30675 21875 c-88 -73 -161 -138 -163 -143 -2 -8 200 -262 263 -330
9 -11 44 13 176 124 90 75 165 140 167 145 4 9 -266 339 -277 338 -3 0 -78
-61 -166 -134z"/>
<path d="M26845 21418 c-143 -120 -262 -224 -263 -229 -4 -9 434 -539 445
-539 4 0 269 220 506 421 l31 26 -209 248 c-115 136 -218 258 -229 270 l-21
23 -260 -220z"/>
<path d="M28290 21540 c-85 -4 -227 -8 -314 -9 l-159 -1 7 -212 c3 -117 9
-273 13 -347 l6 -134 201 7 c111 3 266 9 345 13 l144 6 -7 176 c-3 97 -9 251
-13 344 l-6 167 -31 -2 c-17 -1 -101 -5 -186 -8z"/>
<path d="M38080 21081 c0 -8 -8 -19 -17 -26 -15 -11 -15 -14 4 -38 11 -15 23
-23 27 -20 3 3 6 1 6 -5 0 -6 15 -25 33 -42 34 -31 103 -120 93 -120 -3 0 4
-10 15 -21 27 -27 109 -199 143 -300 14 -42 36 -129 48 -193 13 -64 26 -116
30 -116 4 0 21 12 37 28 l30 27 -29 110 c-72 275 -207 522 -374 685 -25 24
-46 38 -46 31z"/>
<path d="M32245 20934 c-115 -80 -215 -151 -222 -157 -9 -9 21 -60 133 -222
80 -115 151 -216 159 -224 11 -11 47 10 234 139 122 85 221 158 221 163 0 11
-302 447 -310 447 -3 0 -99 -66 -215 -146z"/>
<path d="M37892 20920 c-34 -28 -62 -57 -62 -64 0 -7 -40 -32 -89 -55 l-90
-41 95 -198 c53 -108 98 -203 101 -209 3 -7 6 -13 8 -13 1 0 59 27 128 60 69
33 134 60 145 60 13 0 45 -33 97 -100 43 -55 81 -100 85 -100 19 0 -12 176
-51 292 -27 80 -101 230 -125 253 -38 36 -103 123 -96 130 4 5 2 5 -4 2 -7 -4
-23 2 -37 13 -14 11 -29 20 -34 20 -4 0 -36 -23 -71 -50z"/>
<path d="M26849 20001 c-31 -221 -33 -251 -20 -255 40 -11 480 -70 485 -65 6
6 78 491 74 494 -2 1 -108 16 -236 34 -128 18 -241 35 -250 38 -15 4 -21 -24
-53 -246z"/>
<path d="M33249 19998 c-129 -110 -235 -201 -236 -202 -3 -2 360 -432 392
-465 11 -11 39 8 175 125 89 77 196 168 237 203 l75 63 -25 27 c-13 14 -105
121 -204 237 l-181 211 -233 -199z"/>
<path d="M37610 19817 c-46 -122 -60 -171 -51 -176 14 -9 187 11 305 34 146
30 328 107 294 126 -8 4 -120 48 -249 97 l-235 88 -64 -169z"/>
<path d="M31970 19415 c-85 -95 -155 -177 -155 -182 0 -14 345 -325 355 -321
15 5 321 350 318 357 -5 12 -349 321 -356 320 -4 0 -77 -78 -162 -174z"/>
<path d="M35269 19212 c-96 -130 -174 -242 -174 -249 0 -11 470 -363 484 -363
5 0 290 384 349 469 12 17 -7 33 -225 193 -131 96 -243 177 -249 181 -7 4 -79
-85 -185 -231z"/>
<path d="M37551 19370 c17 -10 458 -177 478 -182 10 -2 25 24 47 82 18 47 33
90 33 95 1 6 -102 11 -286 11 -158 1 -280 -2 -272 -6z"/>
<path d="M38760 19243 c-7 -16 -15 -36 -17 -46 -7 -38 -104 -243 -159 -334
-61 -104 -212 -266 -243 -261 -8 2 -16 -4 -16 -12 0 -8 -8 -15 -17 -15 -9 0
-26 -12 -37 -27 -18 -22 -19 -27 -6 -38 20 -16 26 -13 122 64 83 66 152 143
200 225 65 108 214 471 194 471 -4 0 -14 -12 -21 -27z"/>
<path d="M38503 18913 c-122 -164 -220 -299 -218 -301 6 -6 87 53 143 105 29
27 54 48 57 46 3 -2 3 0 0 3 -2 4 11 25 29 48 18 22 46 60 61 83 15 24 32 40
38 36 6 -3 7 -1 3 5 -4 7 14 51 39 99 59 114 86 173 76 173 -4 0 -107 -134
-228 -297z"/>
<path d="M29040 19039 c-195 -32 -370 -58 -387 -59 -20 0 -33 -5 -33 -12 1
-26 126 -788 131 -792 5 -6 788 120 796 128 3 3 -23 183 -58 401 -52 321 -66
395 -79 394 -8 -1 -175 -27 -370 -60z"/>
<path d="M32022 18454 c-134 -207 -240 -380 -235 -384 16 -15 755 -491 758
-488 22 30 485 752 485 757 0 9 -728 482 -750 488 -10 2 -90 -113 -258 -373z"/>
<path d="M30145 18355 c-108 -141 -195 -260 -193 -264 2 -7 288 -230 480 -374
l36 -28 202 262 c111 143 200 262 198 264 -27 24 -515 395 -520 395 -3 0 -95
-115 -203 -255z"/>
<path d="M26890 18166 c-30 -12 -55 -26 -55 -31 0 -6 11 -40 24 -77 l24 -66
74 26 c40 14 73 29 73 33 0 3 -11 35 -24 70 -28 74 -36 78 -116 45z"/>
<path d="M34250 17670 c-234 -69 -430 -128 -436 -131 -7 -2 36 -162 116 -432
70 -235 129 -430 132 -433 10 -9 868 250 868 262 0 11 -249 857 -253 860 -1 0
-193 -56 -427 -126z"/>
<path d="M39023 17476 c3 -7 18 -59 32 -113 35 -131 34 -129 82 -116 187 54
183 53 183 77 0 54 -71 104 -204 145 -80 25 -100 26 -93 7z"/>
<path d="M28486 16804 c-91 -194 -166 -357 -166 -362 0 -13 712 -344 721 -335
4 4 82 166 173 358 l164 350 -46 21 c-26 12 -189 89 -363 171 l-317 150 -166
-353z"/>
<path d="M31921 16853 l-113 -4 6 -77 c3 -42 9 -130 12 -195 l6 -119 47 6 c25
3 111 8 191 12 l145 6 -7 121 c-3 67 -7 152 -7 190 l-1 67 -82 -2 c-46 -1
-134 -4 -197 -5z"/>
<path d="M33460 16447 l-134 -138 94 -95 c52 -52 117 -114 144 -137 l49 -42
134 139 134 139 -28 29 c-15 17 -80 78 -143 137 l-115 106 -135 -138z"/>
<path d="M39316 16107 c-51 -177 -176 -627 -176 -635 0 -13 92 -35 99 -25 3 5
21 30 39 56 18 26 48 78 65 115 43 90 44 188 4 275 -33 71 -34 126 -3 193 22
48 23 51 5 62 -16 10 -19 6 -33 -41z"/>
<path d="M30771 15989 c-63 -5 -116 -11 -119 -13 -4 -5 19 -359 24 -365 4 -4
367 18 371 23 1 1 -3 83 -10 182 l-12 179 -70 1 c-38 1 -121 -2 -184 -7z"/>
<path d="M31143 15362 c-182 -169 -332 -309 -332 -312 -1 -5 512 -565 589
-644 l28 -29 34 24 c47 33 544 492 597 551 l44 49 -26 27 c-14 15 -152 164
-306 332 -155 168 -285 306 -289 307 -4 1 -156 -136 -339 -305z"/>
<path d="M32366 15403 c-26 -123 -50 -231 -53 -241 -4 -16 24 -24 238 -70 133
-29 243 -51 244 -50 5 7 103 473 100 476 -2 2 -111 27 -242 55 l-239 52 -48
-222z"/>
<path d="M34727 15483 c-3 -10 -34 -141 -68 -291 -47 -204 -60 -275 -51 -284
21 -21 155 -13 390 22 l232 34 14 46 c32 110 79 341 70 349 -5 5 -130 36 -279
70 -148 34 -278 64 -287 67 -10 3 -18 -2 -21 -13z"/>
<path d="M26595 14953 c-121 -14 -221 -26 -223 -28 -3 -3 14 -165 24 -224 l5
-34 236 6 c130 4 238 9 241 11 5 5 -15 220 -24 269 -4 17 -12 27 -22 26 -9 -1
-116 -12 -237 -26z"/>
<path d="M28365 14683 c-27 -48 -95 -176 -152 -283 -58 -107 -107 -197 -109
-199 -2 -3 -15 6 -29 19 -24 22 -32 24 -117 21 -94 -3 -100 -5 -157 -53 l-32
-27 83 -105 c46 -58 85 -105 88 -105 3 -1 39 26 80 59 41 33 81 60 88 60 8 0
148 -73 313 -161 165 -89 302 -159 306 -156 16 16 352 651 348 657 -4 6 -620
342 -656 358 -4 2 -28 -37 -54 -85z"/>
<path d="M37550 14575 c0 -9 6 -17 13 -19 6 -3 112 -7 235 -10 l222 -5 0 24 0
25 -235 0 c-204 0 -235 -2 -235 -15z"/>
<path d="M37552 14304 l3 -179 230 0 230 0 3 164 c1 91 -1 168 -5 172 -5 4
-110 10 -236 14 l-227 7 2 -178z"/>
<path d="M33130 14395 c-52 -31 -96 -58 -97 -59 -2 -2 294 -486 304 -496 2 -2
18 3 34 13 17 9 36 17 43 17 7 0 98 -134 201 -297 103 -164 193 -304 199 -311
9 -9 91 38 376 219 201 127 366 232 368 234 2 1 -90 149 -203 327 l-206 325
-52 7 c-113 13 -126 10 -230 -55 -54 -34 -99 -60 -101 -58 -1 2 -23 38 -49 80
l-47 76 -167 12 c-93 6 -193 14 -223 17 -53 5 -59 3 -150 -51z"/>
<path d="M39225 14018 c-82 -9 -150 -17 -151 -17 -2 -3 37 -315 40 -318 5 -5
305 32 312 40 4 3 -1 66 -10 139 -10 73 -18 138 -18 143 -3 28 -27 30 -173 13z"/>
<path d="M39659 13534 l-139 -139 176 -178 176 -177 144 136 c87 83 144 144
144 156 0 11 -49 68 -117 136 -64 64 -116 121 -115 125 1 5 -2 6 -7 3 -5 -4
-29 9 -53 27 -23 18 -49 37 -56 41 -9 6 -56 -34 -153 -130z"/>
<path d="M29780 13538 c-233 -11 -426 -21 -428 -23 -7 -6 30 -839 37 -847 6
-6 849 27 856 34 5 4 -32 849 -37 852 -1 1 -194 -6 -428 -16z"/>
<path d="M38857 13470 l-55 -89 87 -56 c49 -30 91 -55 94 -55 6 0 39 50 95
141 l22 37 -88 56 c-49 31 -91 56 -94 56 -3 0 -30 -40 -61 -90z"/>
<path d="M27655 12942 c-104 -129 -191 -238 -193 -242 -2 -5 386 -326 473
-391 6 -4 57 50 120 128 61 75 147 181 193 237 45 55 82 104 82 108 0 6 -451
377 -475 390 -5 3 -95 -100 -200 -230z"/>
<path d="M37220 12984 c-34 -47 -60 -87 -59 -88 22 -19 164 -116 170 -116 4 0
34 37 67 83 l59 83 -75 55 c-41 30 -81 57 -87 61 -9 5 -34 -21 -75 -78z"/>
<path d="M31155 13016 c-2 -6 -13 -43 -23 -83 l-20 -72 56 -17 c32 -9 70 -17
86 -18 27 -1 30 3 47 64 10 36 18 72 19 80 0 19 -159 64 -165 46z"/>
<path d="M28861 12911 c-201 -54 -366 -102 -368 -107 -3 -10 185 -735 193
-743 4 -4 745 188 753 195 8 7 -194 754 -204 753 -5 -1 -174 -45 -374 -98z"/>
<path d="M30753 12599 l-111 -51 48 -104 c26 -58 50 -107 53 -111 8 -8 217 87
217 99 0 7 -88 209 -94 215 -1 1 -52 -21 -113 -48z"/>
<path d="M31220 12622 c0 -9 -18 -194 -40 -411 -22 -217 -37 -397 -34 -400 9
-9 818 -89 826 -82 5 5 88 778 88 822 0 5 -16 9 -37 9 -34 0 -699 64 -770 74
-26 4 -33 1 -33 -12z"/>
<path d="M37104 12418 c-18 -44 -35 -73 -46 -76 -26 -6 -24 -52 2 -52 11 0 59
-16 107 -35 48 -19 88 -34 89 -32 4 4 74 181 74 188 0 7 -172 79 -189 79 -5 0
-22 -32 -37 -72z"/>
<path d="M27635 12306 c-60 -10 -111 -20 -113 -21 -2 -2 7 -54 18 -117 l22
-114 108 20 c60 12 111 24 114 27 5 5 -30 220 -36 224 -2 1 -52 -8 -113 -19z"/>
<path d="M36212 12281 l-153 -36 5 -30 c4 -16 20 -90 37 -162 l31 -133 42 0
c40 0 291 52 301 62 4 4 -52 259 -71 321 -7 22 -9 22 -192 -22z"/>
<path d="M37722 12119 c-23 -33 -42 -65 -42 -69 0 -18 60 -40 109 -40 47 0 52
3 76 37 14 21 25 41 25 44 0 6 -18 19 -101 72 l-25 17 -42 -61z"/>
<path d="M34363 11832 c-149 -53 -274 -100 -278 -103 -3 -4 0 -18 6 -33 10
-21 15 -24 27 -13 8 6 16 11 16 9 1 -2 14 2 31 8 55 21 227 52 478 85 26 3 47
10 47 14 0 17 -42 131 -48 130 -4 0 -129 -44 -279 -97z"/>
<path d="M32335 11868 c-2 -7 -11 -74 -20 -149 l-17 -135 -167 -44 c-91 -24
-168 -44 -169 -46 -4 -3 109 -445 115 -453 1 -2 110 24 240 57 l238 61 138
-19 c77 -10 141 -21 143 -23 3 -3 -2 -42 -10 -88 -8 -46 -11 -87 -8 -90 4 -3
57 -14 117 -23 61 -10 119 -20 131 -22 19 -5 22 3 43 131 13 75 21 138 19 139
-1 2 -42 8 -90 15 -49 7 -88 16 -88 20 0 3 16 135 37 293 20 158 34 290 30
294 -5 5 -629 92 -670 94 -4 0 -9 -6 -12 -12z"/>
<path d="M37250 11804 c-107 -8 -267 -22 -355 -31 l-160 -18 3 -45 c2 -24 5
-46 7 -48 2 -2 21 -6 42 -8 21 -2 56 -7 78 -10 78 -11 730 -41 738 -34 7 6 1
61 -18 178 l-6 32 -67 -1 c-37 -1 -155 -8 -262 -15z"/>
<path d="M27870 11678 c-74 -5 -136 -10 -138 -12 -6 -6 14 -275 20 -282 4 -3
70 -2 148 2 l141 7 -6 106 c-7 134 -14 191 -23 190 -4 -1 -68 -6 -142 -11z"/>
<path d="M34120 11616 c0 -12 148 -444 156 -454 1 -2 296 100 546 190 l26 9
-24 72 c-13 40 -28 78 -32 85 -6 8 -74 19 -203 32 -227 23 -433 56 -437 70 -6
15 -32 12 -32 -4z"/>
<path d="M36780 11440 c-10 -6 47 -458 59 -472 8 -9 826 104 837 115 4 4 -4
82 -17 175 l-24 167 -285 7 c-157 3 -347 8 -422 10 -76 3 -142 2 -148 -2z"/>
<path d="M37853 11192 c-188 -125 -343 -230 -343 -234 0 -4 106 -167 236 -363
152 -230 239 -353 247 -349 7 4 168 110 360 237 l347 230 -17 27 c-310 476
-450 680 -468 680 -11 0 -174 -102 -362 -228z"/>
<path d="M27004 11073 c-120 -142 -242 -286 -271 -320 l-54 -61 321 -272 c179
-151 325 -269 330 -264 57 62 530 629 528 634 -2 6 -557 478 -619 528 -14 11
-45 -22 -235 -245z"/>
<path d="M27656 11281 l-35 -50 49 -35 c28 -20 52 -36 54 -36 11 0 68 102 60
109 -22 18 -83 61 -87 61 -3 0 -21 -22 -41 -49z"/>
<path d="M34105 11116 c-23 -103 -42 -202 -39 -205 2 -2 53 -14 114 -26 l110
-22 5 21 c20 86 41 206 36 206 -3 1 -54 11 -114 24 l-107 24 -5 -22z"/>
<path d="M32905 10453 c-80 -156 -145 -289 -143 -295 4 -10 551 -298 568 -298
5 0 38 55 73 123 151 287 227 436 227 444 0 4 -96 57 -212 117 -117 60 -247
128 -289 151 l-77 42 -147 -284z"/>
<path d="M30472 10308 l-81 -170 171 -83 171 -83 74 150 c40 83 76 160 79 172
6 24 21 15 -202 121 l-131 63 -81 -170z"/>
<path d="M26358 10349 c-21 -11 -38 -25 -38 -32 0 -6 -1 -108 -1 -225 l-1
-212 42 -50 c23 -28 44 -50 46 -50 2 0 4 133 4 295 0 162 -3 295 -7 295 -5 -1
-25 -10 -45 -21z"/>
<path d="M27535 10144 c-132 -92 -242 -168 -243 -170 -7 -5 333 -493 344 -494
7 0 460 308 491 334 4 3 -337 491 -345 494 -4 1 -115 -73 -247 -164z"/>
<path d="M34887 9986 c-175 -112 -321 -206 -324 -210 -3 -3 49 -91 115 -195
67 -104 124 -201 128 -215 3 -14 11 -26 18 -26 6 -1 42 -50 79 -110 38 -61 73
-110 79 -110 5 0 48 25 94 55 47 30 87 55 90 55 3 0 -7 -16 -21 -35 -15 -19
-25 -39 -23 -44 4 -11 489 -381 500 -381 4 0 91 111 194 246 133 175 184 251
178 260 -5 7 -90 74 -189 149 l-180 136 -188 292 c-103 161 -193 302 -199 315
-6 12 -16 22 -22 22 -6 0 -154 -92 -329 -204z"/>
<path d="M38572 10043 l-103 -123 33 -28 c62 -52 93 -84 76 -78 -10 3 -18 4
-18 3 0 -1 -52 -200 -115 -442 -62 -242 -112 -441 -111 -443 10 -9 882 -229
887 -224 8 8 232 873 227 876 -2 2 -153 42 -337 89 -183 47 -336 88 -338 91
-3 3 29 45 71 95 42 49 76 94 76 99 0 9 -208 188 -235 204 -5 3 -56 -51 -113
-119z"/>
<path d="M31885 10102 c-220 -13 -402 -26 -403 -28 -6 -4 50 -919 57 -925 3
-3 130 2 281 12 151 10 296 18 323 18 47 1 47 1 41 -26 -4 -16 -7 -32 -8 -36
-1 -8 733 -217 761 -217 7 0 16 12 20 28 3 15 50 185 104 377 53 193 96 352
93 354 -3 3 -348 101 -621 175 l-103 28 0 52 c0 28 -3 88 -7 134 l-6 82 -66
-1 c-36 -1 -246 -13 -466 -27z"/>
<path d="M27680 9492 c0 -4 -153 -144 -340 -311 -341 -304 -341 -304 -322
-325 11 -12 82 -91 158 -177 76 -85 206 -230 288 -322 82 -92 154 -167 160
-167 5 0 27 16 47 36 43 42 38 47 89 -82 17 -43 35 -83 39 -87 10 -10 581 215
581 229 0 6 -32 92 -71 190 -101 254 -97 230 -42 280 l46 42 -289 324 c-160
177 -299 335 -309 350 -20 27 -35 36 -35 20z"/>
<path d="M26362 9262 l-43 -37 1 -815 c0 -448 0 -829 0 -846 0 -25 7 -34 41
-53 22 -13 42 -21 45 -19 2 3 3 410 2 906 l-3 902 -43 -38z"/>
<path d="M28430 8853 c-1 -32 -7 -218 -15 -413 -7 -195 -11 -358 -7 -361 8 -8
824 -39 832 -32 6 5 35 822 29 827 -2 2 -155 9 -339 15 -184 6 -372 14 -417
17 l-83 6 0 -59z"/>
<path d="M31775 7874 c-158 -196 -283 -360 -279 -364 42 -39 693 -554 704
-556 10 -2 115 121 290 340 151 189 276 348 277 353 2 5 -150 133 -338 284
-189 151 -348 280 -355 287 -10 10 -68 -56 -299 -344z"/>
<path d="M35630 7514 c-80 -57 -146 -108 -148 -113 -3 -8 179 -274 208 -304 7
-8 302 192 314 211 5 9 -206 305 -219 308 -6 1 -75 -45 -155 -102z"/>
<path d="M39182 7254 c-18 -91 -31 -168 -29 -170 2 -2 79 -19 171 -38 116 -23
169 -30 171 -22 6 19 65 330 62 331 -2 2 -333 65 -339 65 -2 0 -18 -75 -36
-166z"/>
<path d="M29112 7249 l-172 -91 -96 52 c-53 29 -100 48 -104 43 -25 -27 -331
-625 -324 -632 15 -14 620 -331 631 -331 5 0 20 22 33 50 13 27 36 61 51 76
15 15 133 82 261 149 128 68 234 128 236 134 4 12 -326 641 -336 641 -4 0 -85
-41 -180 -91z"/>
<path d="M26363 7091 l-43 -79 0 -1621 0 -1621 -927 0 -928 0 -80 -45 -80 -44
1053 -1 1052 0 0 1745 c0 960 -1 1745 -2 1745 -2 0 -22 -36 -45 -79z"/>
<path d="M27033 6992 c-199 -86 -363 -161 -363 -166 0 -5 68 -166 152 -359
129 -298 149 -351 137 -361 -8 -6 -75 -60 -147 -119 -90 -73 -130 -113 -124
-120 5 -7 36 -46 70 -88 34 -42 62 -78 62 -81 0 -3 -26 -26 -59 -50 l-59 -44
139 -187 139 -188 67 51 c36 27 69 50 72 50 3 0 31 -31 61 -69 30 -39 61 -70
67 -70 12 -1 685 543 691 558 1 3 -97 128 -218 276 -121 149 -220 274 -220
278 0 5 35 24 78 43 42 19 94 42 114 52 l37 17 -158 365 c-88 200 -163 365
-167 367 -5 1 -172 -69 -371 -155z"/>
<path d="M27999 6872 l-117 -47 49 -124 c26 -67 50 -125 52 -127 3 -4 241 82
255 92 2 1 -19 58 -45 128 -33 86 -53 125 -63 125 -8 -1 -67 -22 -131 -47z"/>
<path d="M34798 6490 c-8 -87 -10 -158 -6 -161 16 -10 300 -31 308 -23 7 8 30
229 30 284 l0 26 -158 14 -159 15 -15 -155z"/>
<path d="M28154 6345 c-55 -64 -100 -120 -102 -124 -2 -7 65 -68 221 -199 13
-12 20 -13 29 -4 8 8 34 -1 100 -34 50 -25 91 -44 93 -42 5 6 85 168 85 173 0
2 -28 19 -62 36 -35 17 -65 33 -67 35 -3 2 5 14 17 27 12 13 22 28 22 34 0 6
-44 48 -97 94 -54 45 -108 91 -119 102 -22 18 -22 18 -120 -98z"/>
<path d="M37872 6272 c-161 -423 -245 -652 -241 -655 8 -7 731 -278 733 -275
5 6 265 703 268 716 2 9 -101 53 -312 132 -173 66 -338 128 -367 139 l-52 20
-29 -77z"/>
<path d="M34902 5775 c-51 -63 -92 -119 -92 -124 0 -11 224 -191 236 -191 7 1
135 157 181 220 11 15 -2 29 -99 106 -61 49 -117 92 -123 96 -8 5 -45 -35
-103 -107z"/>
<path d="M31486 5629 c-76 -105 -134 -194 -130 -199 50 -45 377 -271 383 -264
44 48 272 377 265 383 -18 15 -372 271 -376 271 -2 0 -66 -86 -142 -191z"/>
<path d="M22270 4645 l0 -965 991 0 990 0 -23 43 -23 42 -923 3 -922 2 0 886
0 885 -31 27 c-18 15 -38 31 -45 35 -12 7 -14 -149 -14 -958z"/>
<path d="M29852 5195 c-144 -135 -262 -250 -262 -255 0 -16 361 -395 387 -406
16 -7 41 -8 67 -3 22 5 72 8 109 9 l68 0 195 182 c107 100 193 185 192 189 -2
4 -95 105 -208 225 -113 121 -223 239 -245 262 l-41 44 -262 -247z"/>
<path d="M28980 5165 c-19 -25 -36 -49 -38 -54 -2 -5 19 -27 46 -49 l49 -41
24 27 c14 15 33 38 44 51 l20 23 -50 44 c-27 24 -52 44 -55 44 -3 -1 -21 -21
-40 -45z"/>
<path d="M27230 4964 c-146 -85 -270 -159 -277 -162 -8 -5 13 -51 70 -149 46
-78 85 -145 88 -148 3 -2 148 0 322 5 289 9 321 12 358 30 l40 21 -28 48 c-15
26 -89 152 -163 279 -74 127 -137 232 -140 232 -3 0 -124 -70 -270 -156z"/>
<path d="M35460 5054 c-41 -14 -76 -27 -78 -29 -2 -2 8 -42 23 -90 14 -48 25
-88 23 -90 -2 -1 -83 -10 -182 -21 l-178 -18 5 -40 c3 -23 11 -98 18 -168 7
-70 15 -132 19 -138 5 -8 99 -8 340 0 184 6 336 12 338 15 4 4 -37 397 -42
403 -2 1 -41 -2 -87 -8 -107 -13 -123 -12 -75 6 22 8 41 16 43 18 2 2 -9 45
-24 95 -32 105 -27 103 -143 65z"/>
<path d="M31267 4750 c-81 -99 -147 -182 -147 -186 0 -8 679 7 703 15 15 6
-24 42 -192 179 -116 95 -212 172 -214 172 -2 0 -70 -81 -150 -180z"/>
<path d="M35769 4456 c-2 -2 -26 -6 -54 -9 -27 -3 -120 -15 -205 -26 -85 -11
-180 -22 -210 -25 -192 -20 -180 -17 -180 -43 0 -21 4 -24 28 -19 15 3 59 8
97 11 39 4 84 9 100 12 17 3 27 2 23 -2 -3 -4 -59 -13 -124 -21 -124 -15 -155
-24 -86 -24 61 0 604 69 627 79 32 15 1 13 -161 -10 -81 -11 -149 -18 -151
-15 -6 6 18 10 192 33 115 16 130 20 130 37 0 18 -16 32 -26 22z"/>
<path d="M31585 4170 c-66 -4 -177 -8 -247 -9 -71 0 -128 -5 -128 -10 0 -9 59
-57 94 -77 12 -8 30 -8 51 -3 17 5 43 9 56 9 13 -1 83 7 154 16 112 15 134 20
158 42 33 31 34 43 5 40 -13 -1 -77 -5 -143 -8z"/>
</g>
</svg>
