<?xml version="1.0" standalone="no"?>
<!DOCTYPE svg PUBLIC "-//W3C//DTD SVG 20010904//EN"
 "http://www.w3.org/TR/2001/REC-SVG-20010904/DTD/svg10.dtd">
<svg version="1.0" xmlns="http://www.w3.org/2000/svg"
 width="5000.000000pt" height="5000.000000pt" viewBox="0 0 5000.000000 5000.000000"
 preserveAspectRatio="xMidYMid meet">
<metadata>
Created by potrace 1.15, written by Peter Selinger 2001-2017
</metadata>
<g transform="translate(0.000000,5000.000000) scale(0.100000,-0.100000)"
fill="#000000" stroke="none">
<path d="M19810 34690 l0 -5130 200 0 200 0 0 2125 0 2125 1175 0 1175 0 0
-9595 0 -9595 -150 0 -150 0 0 -5475 0 -5475 2080 0 2080 0 0 5475 0 5475
-150 0 -150 0 0 9595 0 9595 1280 0 1280 0 0 -2125 0 -2125 200 0 200 0 0
5130 0 5130 -200 0 -200 0 0 -2620 0 -2620 -1280 0 -1280 0 0 840 0 840 -1780
0 -1780 0 0 -840 0 -840 -1175 0 -1175 0 0 2620 0 2620 -200 0 -200 0 0 -5130z
m6210 -9335 l0 -10835 150 0 150 0 0 -5375 0 -5375 -1980 0 -1980 0 0 5375 0
5375 150 0 150 0 0 10835 0 10835 1680 0 1680 0 0 -10835z"/>
<path d="M22760 25250 l0 -10840 -150 0 -150 0 0 -5270 0 -5270 1880 0 1880 0
0 5275 0 5275 -150 0 -150 0 0 10835 0 10835 -1580 0 -1580 0 0 -10840z m2960
10485 l0 -235 -615 0 -615 0 0 -10415 0 -10415 615 0 615 0 0 -235 0 -235
-615 0 -615 0 0 -4870 0 -4870 765 0 765 0 0 -235 0 -235 -1680 0 -1680 0 0
235 0 235 765 0 765 0 0 4870 0 4870 -615 0 -615 0 0 235 0 235 615 0 615 0
-2 10415 -3 10416 -612 -1 -613 0 0 235 0 235 1380 0 1380 0 0 -235z"/>
</g>
</svg>
