<?xml version="1.0" standalone="no"?>
<!DOCTYPE svg PUBLIC "-//W3C//DTD SVG 20010904//EN"
 "http://www.w3.org/TR/2001/REC-SVG-20010904/DTD/svg10.dtd">
<svg version="1.0" xmlns="http://www.w3.org/2000/svg"
 width="5000.000000pt" height="5000.000000pt" viewBox="0 0 5000.000000 5000.000000"
 preserveAspectRatio="xMidYMid meet">
<metadata>
Created by potrace 1.15, written by Peter Selinger 2001-2017
</metadata>
<g transform="translate(0.000000,5000.000000) scale(0.100000,-0.100000)"
fill="#000000" stroke="none">
<path d="M20850 37950 l0 -5130 200 0 200 0 0 2125 0 2125 1175 0 1175 0 0
-8560 0 -8560 405 0 405 0 0 390 0 390 435 0 435 0 0 375 0 375 445 0 445 0 0
495 0 495 495 0 495 0 0 7300 0 7300 1280 0 1280 0 0 -2125 0 -2125 200 0 200
0 0 5130 0 5130 -200 0 -200 0 0 -2620 0 -2620 -1280 0 -1280 0 0 840 0 840
-1780 0 -1780 0 0 -840 0 -840 -1175 0 -1175 0 0 2620 0 2620 -200 0 -200 0 0
-5130z"/>
<path d="M25130 18715 l0 -495 -445 0 -445 0 0 -375 0 -375 -435 0 -435 0 0
-390 0 -390 -405 0 -405 0 0 -1035 0 -1035 -150 0 -150 0 0 -5475 0 -5475
2080 0 2080 0 0 5475 0 5475 -150 0 -150 0 0 2295 0 2295 -495 0 -495 0 0
-495z"/>
</g>
</svg>
