<?xml version="1.0" standalone="no"?>
<!DOCTYPE svg PUBLIC "-//W3C//DTD SVG 20010904//EN"
 "http://www.w3.org/TR/2001/REC-SVG-20010904/DTD/svg10.dtd">
<svg version="1.0" xmlns="http://www.w3.org/2000/svg"
 width="5000.000000pt" height="5000.000000pt" viewBox="0 0 5000.000000 5000.000000"
 preserveAspectRatio="xMidYMid meet">
<metadata>
Created by potrace 1.15, written by Peter Selinger 2001-2017
</metadata>
<g transform="translate(0.000000,5000.000000) scale(0.100000,-0.100000)"
fill="#000000" stroke="none">
<path d="M19810 34690 l0 -5130 200 0 200 0 0 2125 0 2125 1175 0 1175 0 0
-2760 0 -2760 50 0 50 0 0 3950 0 3950 1680 0 1680 0 0 -3950 0 -3950 50 0 50
0 0 2760 0 2760 1280 0 1280 0 0 -2125 0 -2125 200 0 200 0 0 5130 0 5130
-200 0 -200 0 0 -2620 0 -2620 -1280 0 -1280 0 0 840 0 840 -1780 0 -1780 0 0
-840 0 -840 -1175 0 -1175 0 0 2620 0 2620 -200 0 -200 0 0 -5130z"/>
<path d="M22760 32190 l0 -3900 715 0 715 0 0 3605 0 3605 -615 0 -615 0 0
235 0 235 1380 0 1380 0 0 -235 0 -235 -615 0 -615 0 0 -3605 0 -3605 715 0
715 0 0 3900 0 3900 -1580 0 -1580 0 0 -3900z"/>
<path d="M27324 26161 c-18 -11 -33 -23 -35 -28 -4 -8 -224 -195 -378 -320
-42 -34 -81 -63 -87 -63 -7 0 -19 -11 -28 -25 -9 -14 -21 -25 -27 -25 -21 0
-108 -83 -124 -119 -10 -20 -33 -68 -51 -107 -19 -38 -34 -76 -34 -82 0 -7 -4
-12 -9 -12 -5 0 -12 -10 -16 -22 -7 -25 -13 -40 -44 -110 -12 -26 -21 -54 -21
-61 0 -8 -9 -22 -20 -32 -11 -10 -20 -26 -20 -36 0 -10 -4 -21 -10 -24 -5 -3
-10 -13 -10 -22 0 -9 -7 -24 -16 -34 -8 -9 -26 -47 -38 -83 -13 -37 -31 -75
-40 -85 -9 -10 -16 -25 -16 -34 0 -10 -11 -30 -24 -45 -108 -123 -246 -299
-246 -311 -1 -9 -20 -38 -44 -66 -116 -132 -306 -370 -306 -382 0 -7 -72 -100
-160 -206 -88 -105 -160 -199 -160 -207 0 -8 -70 -98 -155 -200 -85 -102 -154
-192 -155 -201 0 -9 -48 -73 -107 -143 -60 -70 -117 -140 -128 -155 l-20 -27
-45 53 c-25 30 -69 79 -97 110 -29 30 -53 61 -53 68 0 8 -12 21 -27 30 -24 15
-45 38 -98 112 -5 8 -30 35 -54 61 -24 26 -67 76 -96 112 -29 36 -64 76 -79
89 -14 14 -26 28 -26 33 0 5 -29 39 -65 75 -36 36 -65 72 -65 79 0 8 -4 14 -9
14 -5 0 -40 37 -77 82 -38 45 -95 109 -126 143 -32 34 -58 66 -58 71 0 5 -20
28 -45 52 l-44 42 4 67 c2 36 9 71 14 76 6 6 11 41 11 77 0 36 4 70 9 76 5 5
12 45 15 89 9 134 17 200 27 209 5 6 9 36 9 68 0 45 -6 67 -24 96 -13 20 -27
53 -31 72 -4 19 -16 46 -26 59 -11 13 -19 31 -20 40 0 9 -9 30 -19 46 -36 58
-70 129 -70 146 0 10 -4 21 -10 24 -5 3 -10 15 -10 26 0 10 -4 19 -10 19 -5 0
-10 6 -10 14 0 15 -65 144 -81 160 -5 6 -9 16 -9 23 0 19 -41 73 -55 73 -6 0
-26 16 -45 35 -19 19 -39 35 -45 35 -6 0 -29 18 -50 40 -21 22 -44 40 -50 40
-6 0 -33 23 -60 50 -27 28 -53 50 -58 50 -5 0 -27 16 -48 35 -22 19 -44 35
-50 35 -6 0 -22 14 -36 30 -13 17 -33 30 -44 30 -10 0 -19 5 -19 10 0 6 -30
10 -69 10 -39 0 -73 5 -76 10 -3 6 -28 10 -56 10 -27 0 -49 5 -49 10 0 6 -30
10 -69 10 -39 0 -73 5 -76 10 -3 6 -37 10 -74 10 -49 0 -72 4 -81 15 -9 11
-23 13 -51 9 -28 -5 -46 -2 -64 10 -30 20 -84 18 -97 -4 -8 -12 10 -36 76
-105 47 -50 86 -93 86 -97 0 -4 48 -55 106 -115 59 -59 133 -139 166 -178 33
-38 101 -113 152 -165 88 -89 119 -141 96 -155 -5 -3 -10 -15 -10 -25 0 -11
-6 -34 -14 -52 -8 -18 -25 -67 -37 -108 -23 -75 -27 -88 -46 -125 -5 -11 -16
-44 -23 -74 -7 -30 -26 -79 -41 -109 -16 -30 -29 -63 -29 -74 0 -11 -6 -34
-14 -51 -8 -18 -23 -59 -34 -92 -20 -60 -31 -89 -59 -152 -13 -31 -17 -33 -63
-33 -27 0 -52 -4 -55 -10 -3 -5 -26 -10 -50 -10 -24 0 -47 -4 -50 -10 -3 -5
-21 -10 -40 -10 -19 0 -37 -4 -40 -10 -3 -5 -33 -10 -65 -10 -32 0 -62 -4 -65
-10 -3 -5 -26 -10 -49 -10 -27 0 -48 -6 -57 -16 -8 -10 -21 -13 -36 -9 -14 3
-33 -1 -46 -10 -12 -9 -43 -15 -74 -15 -28 0 -55 -5 -59 -11 -4 -6 -19 -9 -36
-5 -18 3 -41 0 -58 -9 -16 -8 -44 -15 -63 -15 -36 0 -56 19 -265 263 -37 43
-87 100 -112 126 -64 68 -100 110 -100 116 0 3 -17 23 -37 44 -50 49 -135 146
-170 193 -17 23 -36 37 -50 38 -23 0 -23 -1 -23 -149 0 -96 4 -152 11 -156 7
-5 10 -74 8 -206 -1 -140 1 -203 9 -211 8 -8 12 -56 12 -139 l0 -127 85 -87
c47 -48 85 -93 85 -99 0 -6 57 -67 125 -135 69 -68 125 -129 125 -136 0 -21
76 -75 105 -75 8 0 15 -4 15 -10 0 -5 11 -10 24 -10 13 0 50 -13 81 -30 31
-16 65 -30 75 -30 11 0 22 -4 25 -10 6 -9 31 -22 103 -51 17 -8 32 -17 32 -21
0 -5 11 -8 24 -8 13 0 50 -13 81 -30 31 -16 63 -30 69 -30 7 0 41 -14 75 -31
48 -24 70 -30 94 -25 18 4 73 7 122 7 61 0 97 5 112 15 13 8 48 14 86 14 34 0
67 4 72 9 6 5 35 12 65 15 30 3 78 8 105 12 l51 6 44 -51 c25 -29 75 -84 113
-125 37 -40 67 -76 67 -81 0 -4 34 -42 75 -83 41 -41 75 -81 75 -88 0 -8 4
-14 9 -14 11 0 12 -1 101 -106 36 -42 95 -108 131 -148 37 -39 74 -86 83 -103
9 -18 20 -33 25 -33 5 0 27 -19 50 -42 l41 -43 -41 -10 c-45 -11 -57 -28 -110
-150 -36 -83 -39 -89 -47 -105 -24 -43 -73 -146 -72 -153 0 -11 -21 -60 -71
-161 -22 -43 -39 -84 -39 -91 0 -6 -9 -20 -20 -30 -11 -10 -20 -24 -20 -32 0
-7 -4 -21 -9 -31 -5 -9 -14 -28 -20 -42 -11 -24 -39 -45 -104 -79 -16 -8 -31
-21 -34 -28 -5 -13 -106 -83 -119 -83 -3 0 -23 -13 -43 -29 -20 -15 -49 -36
-66 -45 -16 -9 -82 -50 -145 -91 -63 -40 -152 -97 -196 -124 -74 -47 -164
-138 -164 -167 0 -5 -17 -30 -37 -55 -21 -25 -54 -65 -73 -89 -19 -24 -98
-119 -175 -212 -77 -93 -147 -182 -156 -198 -23 -42 -51 -77 -266 -339 -107
-129 -193 -242 -193 -253 0 -11 -9 -22 -20 -25 -11 -3 -20 -10 -20 -17 0 -6
-30 -47 -66 -91 -36 -44 -82 -104 -101 -133 l-34 -53 7 -94 c4 -61 12 -99 20
-106 8 -7 14 -31 14 -57 0 -27 6 -52 16 -63 9 -10 19 -46 24 -81 5 -35 17 -81
28 -103 21 -41 105 -119 211 -196 51 -36 274 -207 395 -301 16 -13 37 -26 46
-29 9 -4 101 1 206 12 l189 18 53 58 c29 32 88 94 131 138 42 44 118 130 169
190 50 61 100 115 111 122 19 12 208 233 233 272 7 12 20 21 28 21 8 0 37 28
65 63 114 142 179 217 189 217 6 0 52 51 101 112 50 62 120 144 156 183 64 68
86 105 164 285 16 36 44 99 63 140 19 41 43 95 54 120 11 25 36 79 55 120 19
41 39 84 43 95 4 11 22 51 41 88 34 69 55 93 213 232 44 39 110 97 146 130
219 197 270 238 270 215 0 -10 92 -117 198 -230 34 -36 62 -71 62 -76 0 -5 29
-38 65 -73 36 -36 65 -70 65 -77 0 -8 13 -23 29 -35 15 -11 70 -71 122 -132
52 -61 109 -124 127 -140 17 -17 32 -36 32 -43 0 -7 16 -27 35 -45 34 -33 35
-35 35 -111 0 -42 5 -80 10 -83 6 -4 10 -148 10 -400 0 -252 4 -396 10 -400 6
-4 10 -95 10 -239 0 -210 2 -234 18 -247 27 -22 60 -39 77 -39 8 0 30 -9 50
-20 20 -11 47 -20 60 -20 14 0 25 -4 25 -10 0 -5 9 -10 20 -10 11 0 20 -4 20
-10 0 -5 11 -10 25 -10 13 0 40 -9 60 -20 20 -11 42 -20 50 -20 8 0 30 -9 50
-20 20 -11 42 -20 50 -20 8 0 35 -11 61 -25 26 -14 53 -25 60 -25 7 0 29 -9
49 -20 20 -11 42 -20 49 -20 8 0 40 -13 71 -30 31 -16 62 -30 69 -30 7 0 31
-9 54 -20 22 -11 50 -20 60 -20 11 0 25 -7 32 -15 7 -8 20 -15 30 -15 10 0 44
-13 75 -30 31 -16 62 -30 69 -30 7 0 31 -9 54 -20 22 -11 50 -20 61 -20 11 0
23 -4 26 -10 3 -5 17 -10 30 -10 13 0 27 -4 30 -10 3 -5 15 -10 26 -10 27 0
26 46 -2 62 -11 7 -30 28 -41 46 -20 33 -44 62 -90 110 -12 13 -28 36 -35 52
-6 17 -16 30 -21 30 -5 0 -36 35 -68 78 -32 42 -64 84 -71 92 -7 8 -31 38 -53
65 -23 28 -54 65 -71 82 -16 18 -29 39 -29 48 0 8 -4 15 -9 15 -5 0 -31 28
-58 61 -26 34 -63 79 -82 100 -28 33 -32 44 -27 73 4 19 13 39 21 46 8 7 15
18 15 24 0 21 337 687 361 712 12 13 31 24 41 24 10 0 26 4 36 9 29 15 106 36
123 33 9 -2 22 4 29 13 7 8 21 15 31 15 11 0 27 4 37 9 31 15 88 31 115 31 14
0 29 5 32 10 3 6 21 10 40 10 19 0 37 5 40 10 3 6 17 10 30 10 13 0 27 5 30
10 3 6 24 10 46 10 21 0 39 5 39 10 0 6 13 10 29 10 17 0 33 5 36 10 3 6 17
10 30 10 13 0 27 5 30 10 14 22 43 7 98 -48 31 -32 57 -62 57 -67 0 -6 77 -87
170 -180 94 -93 170 -174 170 -180 0 -6 62 -72 138 -148 94 -94 144 -137 160
-137 22 0 31 23 12 35 -5 3 -10 14 -10 24 0 10 -18 53 -40 96 -22 43 -40 84
-40 91 0 8 -4 14 -10 14 -5 0 -10 14 -10 30 0 17 -4 30 -10 30 -5 0 -10 9 -10
20 0 11 -4 20 -10 20 -5 0 -10 9 -10 19 0 11 -4 23 -10 26 -5 3 -10 16 -10 29
0 13 -9 31 -20 41 -22 20 -50 71 -50 91 0 7 -9 29 -20 49 -11 20 -20 42 -20
50 0 8 -4 15 -10 15 -5 0 -10 9 -10 20 0 11 -4 20 -10 20 -5 0 -10 13 -10 28
0 16 -9 37 -20 47 -11 10 -20 28 -21 39 0 12 -9 35 -19 51 -34 54 -50 88 -50
105 0 21 -23 70 -32 70 -5 0 -8 9 -8 20 0 11 -4 20 -10 20 -5 0 -10 6 -10 14
0 8 -13 40 -30 71 -16 31 -30 65 -30 75 0 11 -4 21 -9 24 -5 4 -26 41 -46 84
-94 196 -100 206 -142 216 -21 5 -84 10 -140 13 -57 2 -103 8 -103 14 0 5 -50
9 -115 9 -70 0 -115 4 -115 10 0 6 -55 10 -146 10 -95 0 -153 4 -167 12 -14 8
-55 11 -113 9 -73 -2 -93 0 -103 13 -9 11 -30 16 -60 16 -46 0 -50 3 -114 71
-37 39 -67 77 -67 85 0 8 -4 14 -9 14 -8 0 -83 84 -203 228 -29 35 -77 89
-105 120 -29 31 -53 62 -53 69 0 8 -6 16 -14 19 -14 5 -88 88 -201 224 -33 40
-88 102 -122 139 -35 36 -63 69 -63 72 0 4 -25 33 -55 65 -30 33 -55 64 -55
71 0 7 -29 41 -65 77 -36 36 -65 71 -65 78 0 7 -20 31 -45 53 l-44 40 192 231
c243 292 250 300 381 458 250 302 343 412 385 455 59 61 404 471 427 507 63
99 182 224 311 325 76 59 189 150 251 201 125 103 179 144 202 154 36 16 150
133 150 154 0 9 9 25 20 35 11 10 20 25 20 32 0 8 9 26 20 40 11 14 20 33 20
43 0 9 9 25 20 35 11 10 20 26 20 35 0 10 7 23 15 30 8 6 17 22 21 33 4 12 15
34 25 49 11 14 19 31 19 38 0 6 9 23 20 37 11 14 20 33 20 43 0 9 9 25 20 35
11 10 20 24 20 32 0 7 4 21 10 31 29 52 100 207 100 218 0 7 -10 21 -23 31
-13 10 -26 26 -29 35 -4 9 -28 31 -55 50 -26 18 -75 60 -108 94 -66 66 -116
104 -137 104 -7 0 -27 -9 -44 -19z"/>
<path d="M22560 15685 l0 -1065 -150 0 -150 0 0 -5475 0 -5475 2080 0 2080 0
0 5475 0 5475 -150 0 -150 0 0 1065 0 1065 -50 0 -50 0 0 -1115 0 -1115 150 0
150 0 0 -5375 0 -5375 -1980 0 -1980 0 0 5375 0 5375 150 0 150 0 0 1115 0
1115 -50 0 -50 0 0 -1065z"/>
<path d="M22760 15580 l0 -1170 -150 0 -150 0 0 -5270 0 -5270 1880 0 1880 0
0 5275 0 5275 -150 0 -150 0 0 1165 0 1165 -715 0 -715 0 0 -1040 0 -1040 615
0 615 0 0 -235 0 -235 -615 0 -615 0 0 -4870 0 -4870 765 0 765 0 0 -235 0
-235 -1680 0 -1680 0 0 235 0 235 765 0 765 0 0 4870 0 4870 -615 0 -615 0 0
235 0 235 615 0 615 0 0 1040 0 1040 -715 0 -715 0 0 -1170z"/>
</g>
</svg>
